<?xml version="1.0" encoding="utf-8"?>
<!-- Generator: Adobe Illustrator 25.2.1, SVG Export Plug-In . SVG Version: 6.00 Build 0)  -->
<svg version="1.1" id="Layer_1" xmlns="http://www.w3.org/2000/svg" xmlns:xlink="http://www.w3.org/1999/xlink" x="0px" y="0px"
	 width="676px" height="48px" viewBox="0 0 676 48" style="enable-background:new 0 0 676 48;" xml:space="preserve">
<style type="text/css">
	.st0{fill-rule:evenodd;clip-rule:evenodd;fill:#1D923F;}
	.st1{fill-rule:evenodd;clip-rule:evenodd;fill:#F4E516;}
	.st2{fill-rule:evenodd;clip-rule:evenodd;fill:#2C499D;}
	.st3{fill-rule:evenodd;clip-rule:evenodd;fill:#FAFCEE;}
	.st4{fill-rule:evenodd;clip-rule:evenodd;fill:#FFFFFF;}
	.st5{fill:#2B9638;}
	.st6{fill-rule:evenodd;clip-rule:evenodd;fill:#2B9638;}
	.st7{fill-rule:evenodd;clip-rule:evenodd;fill:#F8FBFC;}
	.st8{fill-rule:evenodd;clip-rule:evenodd;fill:#122D90;}
	.st9{fill-rule:evenodd;clip-rule:evenodd;fill:#DF1425;}
	.st10{fill-rule:evenodd;clip-rule:evenodd;fill:#FFFFFF;stroke:#EEEEEE;stroke-width:1.28;stroke-linejoin:bevel;}
	.st11{fill:#FFFFFF;stroke:#EEEEEE;stroke-width:1.28;stroke-linejoin:bevel;}
	.st12{fill-rule:evenodd;clip-rule:evenodd;fill:#FFFFFF;stroke:#EEEEEE;stroke-width:1.152;stroke-linejoin:bevel;}
	.st13{fill:#FFFFFF;stroke:#EEEEEE;stroke-width:1.28;}
	.st14{fill-rule:evenodd;clip-rule:evenodd;fill:#FFFFFF;stroke:#EEEEEE;stroke-width:1.28;}
	.st15{fill:none;stroke:#EEEEEE;stroke-width:1.024;}
	.st16{fill:none;stroke:#EEEEEE;stroke-width:1.28;}
	.st17{fill-rule:evenodd;clip-rule:evenodd;fill:#DE290F;}
	.st18{fill-rule:evenodd;clip-rule:evenodd;fill:#F7DE15;}
	.st19{fill-rule:evenodd;clip-rule:evenodd;fill:#E61410;}
	.st20{fill-rule:evenodd;clip-rule:evenodd;fill:#E7E5E6;}
	.st21{fill-rule:evenodd;clip-rule:evenodd;fill:#479FC8;}
	.st22{fill-rule:evenodd;clip-rule:evenodd;fill:#D31309;}
	.st23{fill-rule:evenodd;clip-rule:evenodd;fill:#C70E0A;}
	.st24{fill-rule:evenodd;clip-rule:evenodd;}
	.st25{fill-rule:evenodd;clip-rule:evenodd;fill:#3B5895;}
	.st26{fill:none;}
	.st27{fill-rule:evenodd;clip-rule:evenodd;fill:#CC100A;}
	.st28{fill-rule:evenodd;clip-rule:evenodd;fill:#160A66;}
	.st29{fill-rule:evenodd;clip-rule:evenodd;fill:#FCCC12;}
	.st30{fill-rule:evenodd;clip-rule:evenodd;fill:#7C7A7B;}
	.st31{fill-rule:evenodd;clip-rule:evenodd;fill:#F2F1F1;}
	.st32{fill-rule:evenodd;clip-rule:evenodd;fill:#19338F;}
	.st33{fill-rule:evenodd;clip-rule:evenodd;fill:#F5F5F5;}
	.st34{fill-rule:evenodd;clip-rule:evenodd;fill:#2C2A4A;}
	.st35{fill:#A41631;}
	.st36{fill-rule:evenodd;clip-rule:evenodd;fill:#132269;}
	.st37{fill:#FFFFFF;}
	.st38{fill:#C8132E;}
	.st39{fill-rule:evenodd;clip-rule:evenodd;fill:#EA1314;}
	.st40{fill-rule:evenodd;clip-rule:evenodd;fill:#F7F719;}
</style>
<g id="br_1_">
	<g id="Flag-_x2F_-Region-_x2F_-Brazil">
		<g id="Mask">
		</g>
		<g id="br">
			<polygon id="Path" class="st0" points="628,0 676,0 676,48 628,48 			"/>
			<polygon id="Path_1_" class="st1" points="652.5,38 674.1,24 652.4,10 630.8,24.1 			"/>
			<path id="Path_2_" class="st2" d="M661.9,24c0.1,3.3-1.6,6.4-4.5,8.1c-2.9,1.7-6.4,1.7-9.3,0c-2.9-1.7-4.6-4.8-4.5-8.1
				c0.2-4.9,4.2-8.8,9.1-8.8C657.7,15.2,661.8,19.1,661.9,24L661.9,24z"/>
			<path id="Shape" class="st3" d="M649.8,29.5l-0.3-0.2l-0.3,0.1l0.1-0.3l-0.2-0.2h0.3l0.2-0.3l0.1,0.3L650,29l-0.2,0.2 M655.9,31
				l-0.3-0.2l-0.3,0.1l0.1-0.3l-0.2-0.2h0.3l0.2-0.3l0.1,0.3l0.3,0.1l-0.2,0.2 M653.3,28.5l-0.2-0.1l-0.3,0.1l0.1-0.3l-0.2-0.2h0.3
				l0.1-0.3l0.1,0.3h0.3l-0.2,0.2 M659.5,27.6l-0.2-0.1l-0.2,0.1l0.1-0.3l-0.2-0.2h0.3l0.1-0.2l0.1,0.3h0.3l-0.2,0.2 M653.2,25.8
				l-0.3-0.2l-0.3,0.1l0.1-0.3l-0.2-0.2h0.3l0.2-0.3l0.1,0.3l0.3,0.1l-0.2,0.2 M645.7,23l-0.3-0.2l-0.3,0.1l0.1-0.3l-0.2-0.2h0.3
				l0.2-0.3l0.1,0.3l0.3,0.1l-0.2,0.2 M646.6,26.7l-0.3-0.2l-0.3,0.1l0.1-0.3l-0.2-0.2h0.3l0.2-0.3l0.1,0.3l0.3,0.1l-0.2,0.2
				 M656,21.6l-0.2-0.1l-0.3,0.1l0.1-0.3l-0.2-0.2h0.3l0.1-0.3l0.1,0.3h0.3l-0.2,0.2 M655.4,24l-0.2-0.1L655,24v-0.2l-0.2-0.2h0.2
				l0.1-0.2l0.1,0.2h0.2l-0.2,0.1 M645.2,27.4l-0.2-0.1l-0.2,0.1v-0.2l-0.1-0.1h0.2l0.1-0.2l0.1,0.2h0.2l-0.2,0.1 M659.5,28.3
				l-0.2-0.1l-0.2,0.1v-0.2L659,28h0.2l0.1-0.1l0.1,0.1h0.2l-0.1,0.1"/>
			<polyline id="Path_3_" class="st3" points="645.2,27.4 645,27.3 644.8,27.4 644.9,27.2 644.7,27 645,27 645,26.8 645.2,27 
				645.4,27 645.2,27.2 			"/>
			<path id="Shape_1_" class="st3" d="M645.2,27.4l-0.2-0.1l-0.2,0.1v-0.2l-0.2-0.2h0.2l0.1-0.2L645,27h0.2l-0.2,0.1 M648.2,27.4
				l-0.2-0.1l-0.2,0.1v-0.2l-0.2-0.2h0.2l0.1-0.2L648,27h0.2l-0.2,0.1 M647.8,28.4l-0.2-0.1l-0.2,0.1v-0.2l-0.2-0.2h0.2l0.1-0.2
				l0.1,0.2h0.2l-0.2,0.1 M654.1,26.6l-0.2-0.1l-0.2,0.1v-0.2l-0.2-0.2h0.2l0.1-0.2l0.1,0.2h0.2l-0.2,0.1 M652.3,26.6l-0.2-0.1
				l-0.2,0.1v-0.2l-0.2-0.2h0.2L652,26l0.1,0.2h0.2l-0.2,0.1 M647.3,26l-0.1-0.1l-0.1,0.1v-0.1l-0.1-0.1h0.1l0.1-0.1v0.1h0.1
				l-0.1,0.1 M659.3,29.1l-0.2-0.1l-0.2,0.1v-0.2l-0.2-0.2h0.2l0.1-0.2l0.1,0.2h0.2l-0.2,0.1 M657.7,29.3l-0.2-0.1l-0.2,0.1v-0.2
				l-0.1-0.1h0.2l0.1-0.2l0.1,0.2h0.2l-0.1,0.1 M658.5,29.3l-0.2-0.1l-0.2,0.1v-0.2L658,29h0.2l0.1-0.1l0.1,0.1h0.2l-0.1,0.1
				 M660.5,27.5l-0.1-0.1l-0.2,0.1v-0.2l-0.1-0.1h0.2l0.1-0.1l0.1,0.1h0.2l-0.1,0.1 M657.8,30.3l-0.2-0.1l-0.2,0.1v-0.2l-0.2-0.1
				h0.2l0.1-0.2l0.1,0.2h0.2l-0.2,0.1 M657.8,31.1l-0.2-0.1l-0.2,0.1v-0.2l-0.1-0.1h0.2l0.1-0.2l0.1,0.2h0.2l-0.1,0.1 M656.4,29.3
				l-0.1-0.1l-0.2,0.1v-0.2L656,29h0.2l0.1-0.1l0.1,0.1h0.2l-0.1,0.1 M655.1,29.3l-0.1-0.1l-0.2,0.1v-0.2l-0.1-0.1h0.2l0.1-0.1
				l0.1,0.1h0.2l-0.1,0.1 M652.9,27.3l-0.1-0.1l-0.2,0.1v-0.2l-0.1-0.1h0.2l0.1-0.1l0.1,0.1h0.2l-0.1,0.1 M653.1,31.2l-0.1-0.1
				l-0.1,0.1v-0.1l-0.1-0.1h0.1l0.1-0.1l0.1,0.1h0.1l-0.1,0.1 M649.8,24.9l-0.3-0.2l-0.3,0.1l0.1-0.3l-0.2-0.2h0.3l0.2-0.3l0.1,0.3
				l0.3,0.1l-0.2,0.2"/>
			<path id="Path_4_" class="st4" d="M661.3,27.3c0.2-0.5,0.3-0.9,0.4-1.4c-4.8-4.3-10.2-6.4-17.1-6c-0.2,0.5-0.5,1-0.6,1.5
				C650.4,20.7,656.7,22.9,661.3,27.3L661.3,27.3z"/>
			<path id="Shape_2_" class="st5" d="M659.2,24.9l0.2,0.1c0,0,0,0.1,0,0.2c0,0,0,0.1,0.1,0.1s0.1,0.1,0.2,0.1c0,0,0.1,0,0.1-0.1
				c0,0,0,0,0-0.1v-0.1l-0.1-0.1c-0.1-0.1-0.1-0.1-0.1-0.2s0-0.3,0.2-0.3c0,0,0.1,0,0.2,0c0.1,0,0.1,0,0.2,0.1
				c0.1,0.1,0.2,0.1,0.2,0.2s0,0.2,0,0.2l-0.2-0.1v-0.1c0,0,0-0.1-0.1-0.1H660c0,0,0,0-0.1,0c0,0,0,0,0,0.1c0,0,0,0.1,0.1,0.2
				l0.1,0.2c0,0.1,0,0.2,0,0.3l-0.1,0.1c-0.1,0-0.1,0-0.2,0c-0.1,0-0.1,0-0.2-0.1c-0.1,0-0.2-0.1-0.2-0.2
				C659.1,25.1,659.1,25,659.2,24.9L659.2,24.9z M658.3,24.4l0.2,0.1v0.1c0,0,0,0.1,0.1,0.1s0.1,0,0.2,0c0,0,0.1,0,0.1-0.1
				c0,0,0,0,0-0.1c0,0,0,0,0-0.1l-0.1-0.1c-0.1-0.1-0.1-0.1-0.1-0.2s0-0.2,0-0.2l0.1-0.1c0,0,0.1,0,0.2,0c0.1,0,0.1,0,0.2,0.1
				c0.1,0.1,0.2,0.1,0.2,0.2s0,0.2,0,0.2l-0.2-0.1v-0.1c0,0,0-0.1-0.1-0.1H659c0,0,0,0-0.1,0c0,0,0,0,0,0.1c0,0,0,0.1,0.1,0.2
				s0.1,0.1,0.2,0.2c0.1,0.1,0.1,0.2,0,0.3c-0.1,0.1-0.2,0.1-0.3,0.1s-0.1,0-0.2-0.1c-0.1,0-0.2-0.1-0.2-0.2
				C658.3,24.5,658.3,24.4,658.3,24.4z M657.3,24.1l0.5-0.8l0.6,0.4l-0.1,0.1l-0.5-0.3l-0.1,0.2l0.4,0.3l-0.1,0.1l-0.4-0.3l-0.1,0.2
				l0.5,0.3l-0.1,0.1L657.3,24.1L657.3,24.1z M655.8,22.9l0.1-0.1l0.4,0.2l-0.2,0.4c-0.2,0-0.3,0-0.5-0.1c-0.1,0-0.2-0.1-0.2-0.2
				s-0.1-0.2-0.1-0.2c0-0.1,0-0.2,0.1-0.3c0-0.1,0.1-0.2,0.2-0.2c0.1-0.1,0.2-0.1,0.3-0.1s0.2,0,0.2,0.1c0.1,0,0.2,0.1,0.2,0.2
				s0,0.2,0,0.3l-0.2-0.1v-0.1l-0.1-0.1c-0.1,0-0.2,0-0.2,0c-0.1,0-0.1,0.1-0.2,0.2c0,0.1-0.1,0.2,0,0.3c0,0.1,0.1,0.1,0.2,0.2h0.1
				h0.1l0-0.3L655.8,22.9L655.8,22.9z M649.4,21.3l0.2-1h0.3L650,21l0.3-0.7h0.3l-0.1,1h-0.2l0.1-0.8l-0.3,0.8h-0.2l-0.1-0.8
				l-0.1,0.8H649.4L649.4,21.3z M648.4,21.1l0.1-1l0.7,0.1v0.2h-0.5v0.2h0.5v0.2h-0.5v0.3h0.5v0.2L648.4,21.1L648.4,21.1z"/>
			<g id="Group" transform="translate(8.484375, 9.984375)">
				<path id="Path_5_" class="st6" d="M636.6,10.9c0-0.2,0-0.3,0.1-0.4l0.2-0.2l0.3-0.2c0.1,0,0.3-0.1,0.4-0.1
					c0.3,0,0.5,0.1,0.7,0.3s0.2,0.4,0.2,0.7s-0.1,0.5-0.3,0.7s-0.4,0.3-0.7,0.2c-0.3,0-0.5-0.1-0.7-0.3
					C636.7,11.5,636.6,11.2,636.6,10.9L636.6,10.9z"/>
				<path id="Path_6_" class="st7" d="M637,10.9c0,0.2,0,0.4,0.2,0.5c0.1,0.1,0.2,0.2,0.4,0.2s0.3-0.1,0.4-0.1
					c0.1-0.1,0.2-0.3,0.2-0.4c0-0.2,0-0.4-0.2-0.5c-0.1-0.1-0.2-0.2-0.4-0.2s-0.3,0.1-0.4,0.1C637,10.6,637,10.8,637,10.9L637,10.9z
					"/>
			</g>
			<g id="Group_1_" transform="translate(9.093750, 9.984375)">
				<path id="Path_7_" class="st6" d="M637.1,11.9v-1.8h0.9c0.2,0,0.4,0,0.5,0.1c0.1,0,0.2,0.1,0.2,0.2c0,0.1,0.1,0.2,0.1,0.3
					s-0.1,0.2-0.1,0.3c-0.1,0.1-0.2,0.1-0.4,0.2c0.1,0,0.2,0.1,0.2,0.1l0.2,0.3l0.3,0.3h-0.5l-0.3-0.4c-0.1-0.1-0.2-0.2-0.2-0.3
					l-0.1-0.1c-0.1,0-0.1,0-0.2,0h-0.1v0.8L637.1,11.9L637.1,11.9z"/>
				<path id="Path_8_" class="st4" d="M637.6,10.9h0.3c0.1,0,0.3,0,0.4,0l0.1-0.1l0.1-0.1c0-0.1,0-0.1-0.1-0.1c0,0-0.1-0.1-0.2-0.1
					h-0.6V10.9L637.6,10.9z"/>
			</g>
			<g id="Group_2_" transform="translate(9.609375, 10.031250)">
				<path id="Path_9_" class="st6" d="M637.9,10.1h0.8c0.1,0,0.3,0,0.4,0.1c0.1,0,0.2,0.1,0.3,0.2c0.1,0.1,0.2,0.2,0.2,0.3
					s0,0.3,0,0.4c0,0.3-0.1,0.5-0.3,0.7c-0.1,0.1-0.2,0.1-0.3,0.1h-0.4h-0.8L637.9,10.1z"/>
				<path id="Path_10_" class="st4" d="M638.3,10.4l-0.1,1.2h0.3h0.3l0.2-0.1c0.1,0,0.1-0.1,0.1-0.2l0.1-0.3v-0.3
					c0-0.1-0.1-0.1-0.1-0.2c0-0.1-0.1-0.1-0.2-0.1c-0.1,0-0.2,0-0.3,0L638.3,10.4L638.3,10.4L638.3,10.4z"/>
			</g>
			<g id="Group_3_" transform="translate(12.093750, 10.406250)">
				<path id="Path_11_" class="st6" d="M640.2,12.3l0.5-1.7l0.6,0.1c0.2,0.1,0.4,0.1,0.5,0.1c0.1,0.1,0.2,0.1,0.2,0.2
					c0,0.1,0,0.2,0,0.4s-0.2,0.3-0.3,0.4c-0.1,0-0.1,0.1-0.2,0.1c-0.1,0-0.3,0-0.4-0.1l-0.3-0.1l-0.2,0.6H640.2L640.2,12.3z"/>
				<path id="Path_12_" class="st4" d="M641,10.9l-0.1,0.5h0.2c0.2,0,0.3,0.1,0.3,0c0.1,0,0.2-0.1,0.2-0.2V11c0-0.1-0.1-0.1-0.2-0.1
					l-0.3-0.1L641,10.9L641,10.9z"/>
			</g>
			<g id="Group_4_" transform="translate(12.562500, 10.593750)">
				<path id="Path_13_" class="st6" d="M640.7,12.1l0.6-1.4l0.7,0.2c0.1,0,0.3,0.1,0.4,0.1c0.1,0.1,0.1,0.1,0.2,0.2s0,0.2,0,0.2
					c0,0.1-0.1,0.2-0.2,0.2c-0.1,0.1-0.3,0.1-0.4,0l0.1,0.2l0.1,0.3l0.1,0.3l-0.4-0.1l-0.1-0.4c0-0.1-0.1-0.2-0.1-0.3
					c0,0,0-0.1-0.1-0.1c0,0-0.1-0.1-0.2-0.1h-0.1L641,12L640.7,12.1L640.7,12.1z"/>
				<path id="Path_14_" class="st4" d="M641.3,11.3l0.3,0.1l0.3,0.1h0.1l0.1-0.1v-0.1l-0.1-0.1l-0.3-0.1l-0.3-0.1L641.3,11.3
					L641.3,11.3z"/>
			</g>
			<g id="Group_5_" transform="translate(13.125000, 10.828125)">
				<path id="Path_15_" class="st6" d="M641.3,11.6c0-0.1,0.1-0.3,0.2-0.4c0-0.1,0.1-0.1,0.2-0.2c0.1-0.1,0.2-0.1,0.3-0.1
					s0.3,0,0.4,0.1c0.2,0.1,0.4,0.2,0.5,0.4s0.1,0.4,0,0.7c-0.1,0.2-0.2,0.4-0.4,0.6c-0.2,0.1-0.5,0.1-0.7,0s-0.4-0.2-0.5-0.4
					C641.2,12.1,641.2,11.9,641.3,11.6L641.3,11.6z"/>
				<path id="Path_16_" class="st4" d="M641.7,11.7c0,0.2,0,0.3,0,0.5c0.1,0.1,0.2,0.2,0.3,0.3c0.1,0,0.3,0,0.4-0.1
					c0.1-0.1,0.2-0.2,0.3-0.4c0-0.2,0-0.4,0-0.5c-0.1-0.1-0.2-0.2-0.3-0.3c-0.1,0-0.3,0-0.4,0.1C641.8,11.4,641.7,11.5,641.7,11.7
					L641.7,11.7z"/>
			</g>
			<g id="Group_6_" transform="translate(14.109375, 11.296875)">
				<path id="Path_17_" class="st6" d="M642.3,12.6l0.8-1.3l0.6,0.3c0.2,0.1,0.3,0.1,0.3,0.2c0.1,0.1,0.1,0.1,0.1,0.2s0,0.2-0.1,0.2
					c0,0.1-0.1,0.2-0.2,0.2c-0.1,0-0.2,0-0.3,0c0,0.1,0.1,0.1,0.1,0.2v0.3v0.3l-0.3-0.2v-0.4v-0.3c0,0,0-0.1-0.1-0.1l-0.1-0.1H643
					l-0.3,0.5L642.3,12.6L642.3,12.6z"/>
				<path id="Path_18_" class="st4" d="M643,12l0.2,0.1l0.3,0.1h0.1c0.1,0,0.1-0.1,0.1-0.2c0,0,0-0.1-0.1-0.1s-0.1-0.1-0.2-0.1
					l-0.2-0.1L643,12L643,12z"/>
			</g>
			<g id="Group_7_" transform="translate(15.937500, 12.515625)">
				<path id="Path_19_" class="st6" d="M644.2,13.1c0.1-0.2,0.2-0.3,0.4-0.3c0.1-0.1,0.2-0.1,0.3-0.1s0.2,0,0.3,0s0.3,0.1,0.4,0.2
					c0.2,0.1,0.4,0.3,0.4,0.6c0,0.2,0,0.5-0.2,0.7c-0.1,0.2-0.4,0.4-0.6,0.4c-0.3,0-0.5,0-0.7-0.1s-0.4-0.3-0.4-0.6
					C643.9,13.5,644,13.3,644.2,13.1L644.2,13.1z"/>
				<path id="Path_20_" class="st4" d="M644.5,13.3c-0.1,0.2-0.2,0.3-0.2,0.5c0,0.1,0.1,0.3,0.2,0.3c0.1,0.1,0.3,0.1,0.4,0.1
					c0.2,0,0.3-0.1,0.4-0.3c0.1-0.2,0.2-0.3,0.2-0.4c0-0.1-0.1-0.2-0.2-0.3c-0.1-0.1-0.3-0.1-0.4-0.1
					C644.8,13,644.7,13.1,644.5,13.3L644.5,13.3z"/>
			</g>
			<polygon id="Path_21_" class="st6" points="651.1,21.5 651.3,20.8 651.8,20.9 651.8,21 651.4,20.9 651.4,21.1 651.7,21.1 
				651.7,21.3 651.3,21.2 651.3,21.4 651.7,21.5 651.7,21.6 			"/>
		</g>
	</g>
</g>
<g id="kh_1_">
	<g id="Flag-_x2F_-Region-_x2F_-Cambodia_1_">
		<g id="Mask_9_">
		</g>
		<g id="kh_2_">
			<polygon id="Path_129_" class="st8" points="576,0 624,0 624,48 576,48 			"/>
			<polygon id="Path_128_" class="st9" points="576,12 624,12 624,36 576,36 			"/>
			<g id="Group_13_" transform="translate(4.241250, 7.024688)">
				<g transform="translate(1.680000, 4.260000)">
					<polygon id="Path_127_" class="st10" points="587.3,11.3 601,11.3 601,16.6 587.3,16.6 					"/>
					<path id="Shape_55_" class="st11" d="M600.3,14.2h0.4v2h-0.4V14.2z M587.3,13.3H601v0.6h-13.7V13.3z M587.3,12.4H601V13h-13.7
						V12.4z"/>
					<polygon id="Path_126_" class="st12" points="587.3,11.6 601,11.6 601,12.1 587.3,12.1 					"/>
					<path id="Shape_54_" class="st11" d="M591,14.2h0.4v2H591V14.2z M596.8,14.2h0.4v2h-0.4V14.2z M587.5,14.2h0.4v2h-0.4V14.2z
						 M588.3,14.2h0.4v2h-0.4V14.2z M589.2,14.2h0.4v2h-0.4V14.2z M590.1,14.2h0.4v2h-0.4V14.2z M597.7,14.2h0.4v2h-0.4V14.2z
						 M598.5,14.2h0.4v2h-0.4V14.2z M599.5,14.2h0.4v2h-0.4V14.2z"/>
					<path id="Path_125_" class="st10" d="M582,16.9c0.3-0.1,0.4-0.4,0.5-0.6h23.2c0.1,0.3,0.3,0.5,0.5,0.6H582z"/>
				</g>
				<path id="Shape_53_" class="st13" d="M595.5,7.6c0,0,0-0.5,0.3-0.5s0.3,0.5,0.3,0.5H595.5z M594,14.1v-0.7
					c0-0.3-0.3-0.4-0.3-0.6c0,0,0-0.4,0-0.5c0.1,0.5,0.4,0.4,0.4,0.2s-0.1-0.3-0.4-0.8c-0.1-0.1,0-0.6,0.1-0.7
					c0,0.4,0.1,0.5,0.3,0.5c0.1,0,0.2-0.1,0.2-0.2c0-0.2-0.2-0.4-0.2-0.6s0-0.5,0.1-0.6c0.1,0.4,0,0.5,0.2,0.5
					c0.3-0.1,0-0.6-0.1-0.7c-0.1-0.1,0.1-0.4,0.1-0.4c0.1,0.3,0.1,0.4,0.2,0.3c0.1,0,0.1-0.2,0-0.4c-0.1-0.1-0.1-0.3,0-0.4
					c0.1,0.2,0.3,0.2,0.3,0.1l-0.1-0.5h2.1l-0.1,0.5c0,0.1,0.2,0.2,0.3-0.1c0.1,0.1,0.1,0.3,0,0.4c-0.2,0.2-0.2,0.4,0,0.4
					c0.1,0,0.1,0,0.2-0.3c0,0,0.2,0.2,0.1,0.4c-0.1,0.1-0.4,0.6-0.1,0.7c0.2,0,0.1-0.1,0.2-0.5c0.2,0.2,0.2,0.4,0.1,0.6
					c-0.1,0.2-0.2,0.3-0.2,0.6c0,0.2,0.1,0.2,0.2,0.2c0.2,0,0.2-0.2,0.3-0.5c0.1,0.2,0.2,0.6,0.1,0.7c-0.3,0.4-0.4,0.6-0.4,0.7
					c0,0.2,0.2,0.3,0.4-0.2c0.1,0.2,0.1,0.5,0.1,0.5c0,0.2-0.3,0.3-0.3,0.6V14L594,14.1L594,14.1z M594.9,8.6V8.2h1.9v0.4H594.9z
					 M595,8.2V7.9h1.6v0.3H595z M595.3,7.9V7.6h1.1v0.3H595.3z M599.2,21.1c-0.2-0.1-0.6-0.4-0.6-0.6v-2.9l0.3-0.4h-6.3l0.3,0.4v2.9
					c0,0.3-0.2,0.5-0.5,0.6H599.2z"/>
				<path id="Shape_52_" class="st11" d="M593.7,18.5h0.4v2h-0.4V18.5z M597.4,18.5h0.4v2h-0.4V18.5z"/>
				<path id="Path_124_" class="st14" d="M592.5,13.9v3.3h6.5v-3.3c-0.2,0.1-0.3,0.2-0.3,0.3v1.4h-5.8v-1.4
					C592.8,14.2,592.8,14,592.5,13.9L592.5,13.9z"/>
				<path id="Path_123_" class="st14" d="M598.1,21.1c-0.2-0.1-0.7-0.4-0.7-0.6v-3.3c0-0.2,0.3-0.3,0.4-0.4h-4.3
					c0.2,0.1,0.4,0.2,0.5,0.4v3.3c0,0.3-0.4,0.5-0.6,0.6H598.1z"/>
				<path id="Shape_51_" class="st13" d="M598.7,16.9v-2.4h-0.6v-0.2h-4.7v0.2h-0.6v2.3h5.9V16.9z M597.2,21.1
					c-0.2-0.1-0.5-0.4-0.5-0.6v-2.8l0.2-0.3h-2.1l0.2,0.2v2.8c0,0.3-0.3,0.5-0.5,0.6L597.2,21.1L597.2,21.1z"/>
				<polygon id="Path_122_" class="st14" points="595.2,17.5 596.3,17.5 596.3,21.1 595.2,21.1 				"/>
				<path id="Path_121_" class="st10" d="M596.9,16.7c0-0.2,0.7-0.3,1.1-0.5h-4.3c0.4,0.2,1,0.2,1,0.5l0.1,0.5l1.8,0.1L596.9,16.7z"
					/>
				<path id="Shape_50_" class="st13" d="M597.7,14.1c0-0.6,0-0.8,0.2-0.8v1.9c-0.4,0.2-0.8,0.7-0.8,0.7h-2.8c0,0-0.3-0.6-0.8-0.7
					v-1.9c0.2,0,0.2,0.2,0.2,0.8H597.7z M597.9,13.9c0-0.7,0.6-0.7,0.6-0.7v0.6c-0.2,0-0.3,0.2-0.3,0.5s0.2,0.3,0.2,0.3v1.7H598
					L597.9,13.9L597.9,13.9z"/>
				<path id="Path_120_" class="st14" d="M593.6,13.9c0-0.7-0.6-0.7-0.6-0.7v0.6c0.2,0,0.3,0.2,0.3,0.5s-0.2,0.3-0.2,0.3v1.7h0.4
					L593.6,13.9L593.6,13.9z"/>
				<g id="Shape_49_" transform="translate(6.240000, 1.080000)">
					<path class="st15" d="M588.5,8.2h2.1 M588.3,8.9h2.5 M588,9.6h3 M587.8,10.6h3.5 M587.7,11.7h3.7"/>
					<path class="st16" d="M586.6,15.2h5.8H586.6z M588.5,15.2h2.2v2h-2.2V15.2z"/>
				</g>
				<path id="Shape_48_" class="st13" d="M594.4,14.5c0.4,0.4,0.3,1.2,0.3,1.6h2.1c0-0.4,0-1.2,0.3-1.6H594.4z M595.6,9.6l-0.3-0.2
					V9c0.1,0,0.2,0.1,0.3,0.2c0-0.3,0.1-0.3,0.2-0.4c0.1,0.1,0.2,0.1,0.2,0.4c0-0.2,0.1-0.2,0.3-0.2v0.4L596,9.6H595.6z"/>
				<path id="Path_119_" class="st14" d="M595.6,10.3l-0.5-0.3V9.5c0.2,0,0.4,0.1,0.4,0.3c0-0.3,0.2-0.4,0.3-0.6
					c0.2,0.1,0.3,0.3,0.3,0.6c0-0.2,0.2-0.2,0.4-0.3v0.4l-0.5,0.3L595.6,10.3L595.6,10.3z"/>
				<path id="Shape_47_" class="st13" d="M595.5,11.3l-0.5-0.5v-0.6c0.2,0.1,0.4,0.1,0.4,0.4c0.1-0.4,0.2-0.6,0.4-0.8
					c0.2,0.2,0.3,0.4,0.4,0.8c0-0.3,0.2-0.3,0.4-0.4v0.6l-0.5,0.5H595.5z M596.5,12l-0.5,0.7h-0.6L595,12H596.5z M594.7,13.1
					c0.2,0.1,0.3,0.4,0.4,0.9h1.4c0-0.5,0.1-0.8,0.4-0.9H594.7z"/>
				<path id="Path_118_" class="st10" d="M596.8,11.9v-0.7c-0.2,0-0.4,0.2-0.5,0.4c0-0.2-0.3-0.8-0.6-1c-0.3,0.3-0.6,0.8-0.6,1
					c-0.1-0.2-0.2-0.3-0.5-0.4V12L596.8,11.9z"/>
				<path id="Path_117_" class="st10" d="M597,13.1v-0.7c-0.3,0.1-0.4,0.2-0.5,0.4c0-0.2-0.3-0.8-0.7-1c-0.4,0.3-0.7,0.8-0.7,1
					c-0.1-0.2-0.2-0.3-0.5-0.4v0.7H597z"/>
				<path id="Path_116_" class="st10" d="M597.2,14.5v-0.8c-0.3,0.1-0.5,0.2-0.6,0.5c0-0.4-0.5-1.1-0.8-1.3
					c-0.4,0.2-0.8,0.9-0.8,1.3c-0.2-0.2-0.4-0.4-0.6-0.5v0.8H597.2z"/>
				<path id="Path_115_" class="st10" d="M597.1,16.3v-0.8c-0.3,0.1-0.4,0.4-0.5,0.6c0-0.8-0.5-1.7-0.8-1.9
					c-0.4,0.2-0.9,1.1-0.8,1.9c-0.1-0.2-0.2-0.4-0.5-0.6v0.8L597.1,16.3z"/>
				<path id="Path_114_" class="st14" d="M596.9,17.5v-0.8c-0.3,0.1-0.3,0.2-0.4,0.4c0-0.5-0.3-1.1-0.7-1.3
					c-0.4,0.2-0.7,0.8-0.7,1.3c-0.1-0.2-0.1-0.3-0.4-0.4v0.8H596.9z"/>
				<g id="a_4_" transform="translate(1.680000, 1.740000)">
					<path id="Path_113_" class="st14" d="M582.5,18.8v-2.5c-0.1-0.3-0.4-0.6-0.5-0.6v-2.2l0.4,0.2L583,16v2.8H582.5z"/>
					<path id="Path_112_" class="st14" d="M582.5,18.8v-2.5c-0.1-0.3-0.4-0.6-0.5-0.6v-2.3c0.3,0,0.4,0.4,0.4,0.4L583,16v2.8H582.5z
						"/>
					<path id="Path_111_" class="st14" d="M582.2,19.4c0.2-0.1,0.5-0.4,0.5-0.6v-3.1l-0.1-0.2h5.2l-0.2,0.2v3.1
						c0,0.3,0.2,0.5,0.4,0.6H582.2z"/>
					<path id="Path_110_" class="st14" d="M587,19.4c-0.2-0.1-0.5-0.4-0.5-0.6v-2.9l0.4-0.4h-3.5l0.4,0.4v2.9c0,0.3-0.3,0.5-0.5,0.6
						H587z"/>
					<path id="Path_109_" class="st14" d="M586.5,19.4c-0.2-0.1-0.5-0.4-0.5-0.6v-2.6l0.3-0.4H584l0.3,0.4v2.6
						c0,0.3-0.3,0.5-0.5,0.6H586.5z"/>
					<polygon id="Path_108_" class="st14" points="584.6,15.8 585.7,15.8 585.7,19.4 584.6,19.4 					"/>
					<path id="Shape_46_" class="st11" d="M583.1,16.8h0.4v2h-0.4V16.8z M586.8,16.8h0.4v2h-0.4V16.8z M582.7,13.4h0.5v2h-0.5V13.4z
						 M582.7,13h0.5v0.4h-0.5V13z M587,13.9h0.7v1.6H587V13.9z"/>
					<path id="Shape_45_" class="st13" d="M583.3,15.4V12c0.1,0,0.2,0.5,0.5,0.5c0.2,0,0.2-0.2,0.1-0.4c-0.1-0.2-0.2-0.4,0-0.8
						c0.1,0.3,0.4,0.4,0.3,0.2c-0.1-0.3-0.3-0.4-0.1-0.9c0.1,0.4,0.3,0.4,0.3,0.2c-0.1-0.3-0.2-0.4,0-0.8c0.1,0.4,0.2,0.4,0.2,0.1
						c0-0.4,0-0.8,0.5-1c0,0,0-0.4,0.2-0.4s0.2,0.4,0.2,0.4c0.5,0.2,0.5,0.6,0.5,1c0,0.3,0.1,0.3,0.2-0.1c0.2,0.4,0,0.5,0,0.8
						c-0.1,0.2,0.2,0.3,0.3-0.2c0.2,0.5-0.1,0.6-0.1,0.9c0,0.2,0.2,0.1,0.3-0.2c0.1,0.4,0,0.6,0,0.8c-0.1,0.2-0.1,0.4,0.1,0.4
						c0.3,0,0.4-0.5,0.5-0.5v3.5L583.3,15.4L583.3,15.4z M582.4,12.8v2.7h0.3v-2.6C582.6,12.8,582.5,12.8,582.4,12.8z"/>
					<path id="Shape_44_" class="st13" d="M582.5,14.6c0.4,0.2,0.7,0.5,0.8,1.1h-0.8V14.6z M587.6,13.7v2h0.2v-2
						C587.8,13.7,587.7,13.7,587.6,13.7z"/>
					<path id="Shape_43_" class="st13" d="M587.9,14.5c-0.4,0.2-0.7,0.4-0.8,0.9h0.8V14.5z M585.4,10.5l0.2-0.2v-0.2
						c-0.1,0-0.1,0-0.2,0.1c0-0.2-0.2-0.3-0.3-0.4c-0.2,0.1-0.3,0.2-0.3,0.4c-0.1-0.1-0.1-0.1-0.2-0.1v0.2l0.2,0.2H585.4z"/>
					<path id="Path_107_" class="st14" d="M585.5,11.1l0.1-0.2v-0.3c-0.1,0-0.1,0-0.2,0.1c0-0.2-0.2-0.3-0.3-0.4
						c-0.2,0.1-0.3,0.2-0.3,0.4c-0.1-0.1-0.1-0.1-0.2-0.1v0.3l0.1,0.2C584.8,11.1,585.5,11.1,585.5,11.1z"/>
					<path id="Path_106_" class="st14" d="M585.5,11.9l0.3-0.4v-0.4c-0.1,0-0.2,0.1-0.3,0.2c-0.1-0.3-0.2-0.3-0.5-0.5
						c-0.2,0.1-0.4,0.2-0.5,0.4c-0.1-0.1-0.2-0.2-0.3-0.2v0.4l0.3,0.4L585.5,11.9L585.5,11.9z"/>
					<path id="Path_105_" class="st14" d="M585.6,12.6c0,0,0.4-0.3,0.4-0.5v-0.4c-0.1,0-0.3,0.1-0.4,0.2c-0.1-0.4-0.2-0.4-0.5-0.6
						c-0.3,0.2-0.4,0.3-0.5,0.6c-0.1-0.2-0.2-0.2-0.4-0.2v0.4c0.1,0.2,0.2,0.4,0.4,0.5H585.6z"/>
					<path id="Path_104_" class="st14" d="M585.8,14.1c0,0,0.5-0.6,0.5-0.8v-0.6c-0.2,0-0.4,0.2-0.5,0.4c-0.1-0.5-0.3-0.9-0.7-1.2
						c-0.4,0.3-0.5,0.6-0.7,1.2c-0.1-0.3-0.3-0.4-0.5-0.4v0.6c0,0.2,0.5,0.8,0.5,0.8H585.8z"/>
					<path id="Path_103_" class="st14" d="M585.8,14.9c0,0,0.4-0.4,0.5-0.6v-0.6c-0.2,0-0.4,0.2-0.5,0.4c-0.1-0.4-0.3-0.8-0.7-1.1
						c-0.4,0.3-0.5,0.6-0.7,1.1c-0.1-0.3-0.3-0.4-0.5-0.4v0.6c0.1,0.2,0.5,0.6,0.5,0.6H585.8z"/>
					<path id="Path_102_" class="st14" d="M586,15.4c-0.1-0.6-0.2-1-0.8-1.4c-0.6,0.4-0.7,0.8-0.9,1.4H586z"/>
					<path id="Path_101_" class="st14" d="M586.3,15.8V15c-0.3,0.1-0.5,0.3-0.6,0.5c-0.1-0.5-0.3-0.6-0.5-0.9
						c-0.3,0.3-0.4,0.5-0.5,0.9c-0.1-0.2-0.3-0.4-0.6-0.5v0.8H586.3z"/>
				</g>
				
					<g id="a-link_2_" transform="translate(11.842000, 4.740000) scale(-1, 1) translate(-11.842000, -4.740000) translate(9.842000, 1.740000)">
					<g id="a_3_">
						<path id="Path_100_" class="st14" d="M-593.5,18.8v-2.5c-0.1-0.3-0.4-0.6-0.5-0.6v-2.2l0.4,0.2l0.5,2.3v2.8H-593.5z"/>
						<path id="Path_99_" class="st14" d="M-593.5,18.8v-2.5c-0.1-0.3-0.4-0.6-0.5-0.6v-2.3c0.3,0,0.4,0.4,0.4,0.4l0.5,2.3v2.8
							L-593.5,18.8z"/>
						<path id="Path_98_" class="st14" d="M-593.8,19.4c0.2-0.1,0.5-0.4,0.5-0.6v-3.1l-0.1-0.2h5.2l-0.2,0.2v3.1
							c0,0.3,0.2,0.5,0.4,0.6H-593.8z"/>
						<path id="Path_97_" class="st14" d="M-589.1,19.4c-0.2-0.1-0.5-0.4-0.5-0.6v-2.9l0.4-0.4h-3.5l0.4,0.4v2.9
							c0,0.3-0.3,0.5-0.5,0.6H-589.1z"/>
						<path id="Path_89_" class="st14" d="M-589.6,19.4c-0.2-0.1-0.5-0.4-0.5-0.6v-2.6l0.3-0.4h-2.3l0.3,0.4v2.6
							c0,0.3-0.3,0.5-0.5,0.6H-589.6z"/>
						<polygon id="Path_86_" class="st14" points="-591.5,15.8 -590.4,15.8 -590.4,19.4 -591.5,19.4 						"/>
						<path id="Shape_42_" class="st11" d="M-593,16.8h0.4v2h-0.4V16.8z M-589.3,16.8h0.4v2h-0.4V16.8z M-593.3,13.4h0.5v2h-0.5
							V13.4z M-593.3,13h0.5v0.4h-0.5V13z M-589,13.9h0.7v1.6h-0.7V13.9z"/>
						<path id="Shape_41_" class="st13" d="M-592.8,15.4V12c0.1,0,0.2,0.5,0.5,0.5c0.2,0,0.2-0.2,0.1-0.4c-0.1-0.2-0.2-0.4,0-0.8
							c0.1,0.3,0.4,0.4,0.3,0.2c-0.1-0.3-0.3-0.4-0.1-0.9c0.1,0.4,0.3,0.4,0.3,0.2c-0.1-0.3-0.2-0.4,0-0.8c0.1,0.4,0.2,0.4,0.2,0.1
							c0-0.4,0-0.8,0.5-1c0,0,0-0.4,0.2-0.4s0.2,0.4,0.2,0.4c0.5,0.2,0.5,0.6,0.5,1c0,0.3,0.1,0.3,0.2-0.1c0.2,0.4,0,0.5,0,0.8
							c-0.1,0.2,0.2,0.3,0.3-0.2c0.2,0.5-0.1,0.6-0.1,0.9c0,0.2,0.2,0.1,0.3-0.2c0.1,0.4,0,0.6,0,0.8c-0.1,0.2-0.1,0.4,0.1,0.4
							c0.3,0,0.4-0.5,0.5-0.5v3.5L-592.8,15.4L-592.8,15.4z M-593.6,12.8v2.7h0.3v-2.6C-593.4,12.8-593.5,12.8-593.6,12.8z"/>
						<path id="Shape_40_" class="st13" d="M-593.6,14.6c0.4,0.2,0.7,0.5,0.8,1.1h-0.8V14.6z M-588.4,13.7v2h0.2v-2
							C-588.3,13.7-588.4,13.7-588.4,13.7z"/>
						<path id="Shape_11_" class="st13" d="M-588.2,14.5c-0.4,0.2-0.7,0.4-0.8,0.9h0.8V14.5z M-590.7,10.5l0.2-0.2v-0.2
							c-0.1,0-0.1,0-0.2,0.1c0-0.2-0.2-0.3-0.3-0.4c-0.2,0.1-0.3,0.2-0.3,0.4c-0.1-0.1-0.1-0.1-0.2-0.1v0.2l0.2,0.2H-590.7z"/>
						<path id="Path_85_" class="st14" d="M-590.5,11.1l0.1-0.2v-0.3c-0.1,0-0.1,0-0.2,0.1c0-0.2-0.2-0.3-0.3-0.4
							c-0.2,0.1-0.3,0.2-0.3,0.4c-0.1-0.1-0.1-0.1-0.2-0.1v0.3l0.1,0.2C-591.3,11.1-590.5,11.1-590.5,11.1z"/>
						<path id="Path_48_" class="st14" d="M-590.5,11.9l0.3-0.4v-0.4c-0.1,0-0.2,0.1-0.3,0.2c-0.1-0.3-0.2-0.3-0.5-0.5
							c-0.2,0.1-0.4,0.2-0.5,0.4c-0.1-0.1-0.2-0.2-0.3-0.2v0.4l0.3,0.4L-590.5,11.9L-590.5,11.9z"/>
						<path id="Path_47_" class="st14" d="M-590.4,12.6c0,0,0.4-0.3,0.4-0.5v-0.4c-0.1,0-0.3,0.1-0.4,0.2c-0.1-0.4-0.2-0.4-0.5-0.6
							c-0.3,0.2-0.4,0.3-0.5,0.6c-0.1-0.2-0.2-0.2-0.4-0.2v0.4c0.1,0.2,0.2,0.4,0.4,0.5H-590.4z"/>
						<path id="Path_41_" class="st14" d="M-590.3,14.1c0,0,0.5-0.6,0.5-0.8v-0.6c-0.2,0-0.4,0.2-0.5,0.4c-0.1-0.5-0.3-0.9-0.7-1.2
							c-0.4,0.3-0.5,0.6-0.7,1.2c-0.1-0.3-0.3-0.4-0.5-0.4v0.6c0,0.2,0.5,0.8,0.5,0.8H-590.3z"/>
						<path id="Path_40_" class="st14" d="M-590.3,14.9c0,0,0.4-0.4,0.5-0.6v-0.6c-0.2,0-0.4,0.2-0.5,0.4c-0.1-0.4-0.3-0.8-0.7-1.1
							c-0.4,0.3-0.5,0.6-0.7,1.1c-0.1-0.3-0.3-0.4-0.5-0.4v0.6c0.1,0.2,0.5,0.6,0.5,0.6H-590.3z"/>
						<path id="Path_39_" class="st14" d="M-590.1,15.4c-0.1-0.6-0.2-1-0.8-1.4c-0.6,0.4-0.7,0.8-0.9,1.4H-590.1z"/>
						<path id="Path_38_" class="st14" d="M-589.8,15.8V15c-0.3,0.1-0.5,0.3-0.6,0.5c-0.1-0.5-0.3-0.6-0.5-0.9
							c-0.3,0.3-0.4,0.5-0.5,0.9c-0.1-0.2-0.3-0.4-0.6-0.5v0.8H-589.8z"/>
					</g>
				</g>
				<path id="Shape_10_" class="st13" d="M581.1,24.1h29.4v1.5h-29.4V24.1z M580.3,25.6h31v1.5h-31V25.6z M582.6,21.8H609v1h-26.3
					v-1H582.6z"/>
				<path id="Shape_9_" class="st13" d="M581.8,22.8h27.9v1.3h-27.9V22.8z M583.1,21.1h25.4v0.7h-25.4V21.1z"/>
				<polygon id="Path_37_" class="st14" points="585.8,21.1 587.8,21.1 587.8,27.1 585.8,27.1 				"/>
				<path id="Shape_5_" class="st13" d="M586.3,21.1h1.1v6h-1.1V21.1z M594.8,21.1h1.9v6h-1.9V21.1z"/>
				<path id="Shape_4_" class="st13" d="M595.2,21.1h1.1v6h-1.1V21.1z M603.8,21.1h1.9v6h-1.9V21.1z"/>
				<polygon id="Path_32_" class="st14" points="604.2,21.1 605.3,21.1 605.3,27.1 604.2,27.1 				"/>
				<path id="Shape_3_" class="st16" d="M584.2,20.5h23.2 M586.3,26.4h1.1 M586.3,25.6h1.1 M586.3,24.9h1.1 M586.3,24.1h1.1
					 M586.3,23.4h1.1 M586.3,22.6h1.1 M586.3,21.9h1.1 M595.3,26.4h1 M595.3,25.6h1 M595.3,24.9h1 M595.3,24.1h1 M595.3,23.4h1
					 M595.3,22.6h1 M595.3,21.9h1 M604.2,26.4h1.1 M604.2,25.6h1.1 M604.2,24.9h1.1 M604.2,24.1h1.1 M604.2,23.4h1.1 M604.2,22.6
					h1.1 M604.2,21.9h1.1"/>
			</g>
		</g>
	</g>
</g>
<g id="cn_1_">
	<g id="Flag-_x2F_-Region-_x2F_-China">
		<g id="Mask_2_">
		</g>
		<g id="cn">
			<polygon id="Path_66_" class="st17" points="524,0 572,0 572,48 524,48 			"/>
			<g id="Group_9_" transform="translate(3.000000, 2.000000)">
				<polygon id="Fill-2" class="st18" points="532.4,9.4 527,9.4 531.4,12.6 529.7,18 534,14.7 538.4,18 536.7,12.6 541,9.4 
					535.7,9.4 534,4 				"/>
				<polygon id="Fill-3" class="st18" points="549.7,15.9 548.4,15.3 549,16.5 547.9,17.5 549.4,17.3 550,18.6 550.3,17.2 
					551.7,17.1 550.4,16.4 550.7,15 				"/>
				<polygon id="Fill-4" class="st18" points="549.2,9.1 547.7,8.9 548.8,9.9 548.2,11.1 549.5,10.4 550.5,11.4 550.2,10 551.5,9.3 
					550.1,9.2 549.8,7.8 				"/>
				<polygon id="Fill-5" class="st18" points="544.6,21.2 543.2,21.6 544.6,22 544.7,23.5 545.5,22.3 546.8,22.7 545.9,21.6 
					546.7,20.4 545.4,20.9 544.5,19.7 				"/>
				<polygon id="Fill-6" class="st18" points="544.6,4.4 543.2,4.8 544.5,5.2 544.5,6.7 545.4,5.5 546.7,6 545.9,4.8 546.8,3.7 
					545.5,4.1 544.7,3 				"/>
			</g>
		</g>
	</g>
</g>
<g id="id_1_">
	<g id="Flag-_x2F_-Region-_x2F_-Indonesia_1_">
		<g id="Mask_8_">
		</g>
		<g id="id_2_">
			<polygon id="Path_28_" class="st19" points="472,0 520,0 520,24.9 472,24.9 			"/>
			<polygon id="Path_27_" class="st4" points="472,24 520,24 520,48 472,48 			"/>
		</g>
	</g>
</g>
<g id="int">
	<g id="Flag-_x2F_-Region-_x2F_-International">
		<g id="Mask_4_">
		</g>
		<g id="world">
			<polygon id="Fill-1" class="st20" points="420,48 468,48 468,0 420,0 			"/>
			<polygon id="Fill-2_1_" class="st21" points="459.9,14.5 460.1,14.5 460.1,14.4 459.9,14.4 			"/>
			<polygon id="Fill-3_1_" class="st21" points="437.1,15.2 436.8,15.2 436.9,15.4 437,15.4 			"/>
			<polygon id="Fill-4_1_" class="st21" points="449.9,13.6 450.1,13.6 450.1,13.4 449.9,13.4 			"/>
			<polygon id="Fill-5_1_" class="st21" points="449.5,14.4 449.5,14.5 449.4,14.6 449.1,14.7 448.9,14.8 448.9,15 449.2,15.2 
				449.5,15.1 449.4,14.9 449.4,14.8 449.5,14.7 449.5,14.7 449.5,14.6 449.8,14.5 450.8,14.3 450.8,14 			"/>
			<g id="Group-52" transform="translate(1.000000, 5.000000)">
				<path id="Fill-6_1_" class="st21" d="M430.3,12.5v-0.2h0.1L430.3,12.5z M429.8,10.8l-0.1-0.1l-0.7-0.1v-0.2h0.1l0.1,0.1h0.1h0.5
					V10.8L429.8,10.8z M428.6,10.9l-0.1,0.1h-0.1h-0.2c0-0.1,0-0.2,0-0.2c-0.1,0.1,0-0.1,0,0l0.1-0.1h0.1L428.6,10.9L428.6,10.9z
					 M427.9,13.9l-0.2-0.2l0.1-0.1l0.1,0.1V13.9L427.9,13.9z M431.1,10.4l0.2,0.1l-0.1,0.1v0.1h-0.1V10.4z M431.6,13.7L431.6,13.7
					l0.2-0.1h0.3l0.2,0.3H432h-0.2h-0.1L431.6,13.7z M432.5,14.1h0.3l0.1,0.2h-0.1l-0.1,0.2h-0.1L432.5,14.1l-0.1,0.1L432.5,14.1z
					 M432.1,14.8H432l0.1-0.6l0.1,0.1L432.1,14.8z M437.5,22.4h-0.3h-0.1l-0.2-0.2h-0.1l-0.1-0.1h-0.1l-0.1-0.1l-0.2,0.1h-0.1
					c0.1-0.1,0.2-0.1,0.2-0.2s-0.1-0.2-0.1-0.2c-0.1-0.8-1-0.4-1.1-1.1l0.1-0.2l-0.5,0.1h-0.3L434,20l-0.1-0.3l-0.1,0.3h-0.1
					l-0.1,0.1l-0.1,0.2l-0.1,0.1c-0.1-0.1-0.1-0.1-0.2-0.1c-0.3,0-0.2,0-0.2,0.1h-0.1l-0.2-0.2v-0.1v-0.5v-0.2l-0.1-0.2h-0.2h-0.3
					l0.2-0.8l-0.1-0.1H432l-0.2,0.5h-0.3h-0.1l-0.4-0.6v-0.5v-0.5l0.4-0.4h0.3V17h0.2l0.1-0.1v-0.2l0.6,0.1l0.2,0.5v0.2h0.1
					c0-0.6-0.1-0.6-0.1-0.9s0.5-0.6,0.6-0.8v-0.3v-0.1l0.1-0.1h0.1l0.2-0.1l0.1-0.1h0.2v-0.3v-0.1l0.1-0.3h0.1l0.4-0.1l0.1,0.4
					l0.3-0.1l0.2-0.2l-0.2-0.1l-0.1-0.1l-0.1-0.1V14l0.1-0.1l-0.5-0.1v-0.1l0.1-0.1l0.7,0.1h0.1l0.3-0.1l-0.1,0.2l-0.1,0.3l0.6,0.1
					l0.2,0.1l-0.1-0.2l-0.1-0.2h-0.2l-0.1-0.1l0.1-0.5l-0.3-0.4l-0.4-0.1l-0.4-0.7l-0.2,0.2l-0.4-0.1v-0.4c-0.5-0.1-0.2-0.2-0.5-0.2
					h-0.5c0,0.4,0.1,0.8,0.1,0.9c0,0.3-0.1,0.3-0.2,0.3l-0.1,0.1V13l-0.1,0.2h-0.2l-0.1-0.4h-0.3l-0.1-0.1l-0.7-0.2l-0.1-0.1
					l-0.1-0.1h-0.1V12l0.4-0.4l0.4-0.1l0.1-0.2l0.1,0.2l0.1,0.1h0.1l0.2-0.1l-0.1,0.3l0.3-0.2l-0.1-0.2l-0.2-0.1h-0.1l0.1-0.2h0.1
					h0.1h0.2l-0.1-0.2l0.1-0.2h-0.2l0.7-0.1l0.1,0.1h0.1l-0.2,0.1V11h0.2v-0.2h0.1l0.2,0.1l-0.1,0.2l-0.2,0.2h-0.1h-0.1l-0.1,0.1
					h0.2h0.1h0.2l0.5,0.3c0,0.4,0.4-0.1,0.5-0.1l-0.1-0.1l-0.2-0.2v-0.2h0.1l0.1,0.1l0.1,0.1h0.2l0.1-0.1L435,11l-0.3-0.1l-0.3-0.1
					l0.1-0.1v-0.2l-0.5-0.3l-0.1,0.1h-0.2l-0.1-0.1l-0.1-0.1l-0.1-0.1c0-0.2-0.6-0.1-0.8-0.1V10h-0.1h-0.2v0.2V9.8L432,9.7l0,0
					l-0.1,0.1V10l0.1,0.2h0.1h0.2v0.2l-0.1,0.1l-0.1,0.1H432v-0.2l-0.1-0.1l-0.1,0.1l-0.2-0.1l-0.1-0.1l-0.1-0.1l-0.1-0.1l-0.1-0.2
					h0.3l0.1-0.2h-0.1h-0.4L431,9.8V10l-0.1,0.1L431,10l-0.1-0.3h-0.3l-0.3,0.1c0.2,0.3,0,0.2,0.3,0.2l0.4,0.1l-0.1,0.2h-0.2
					l0.1,0.3H430l-0.2-0.1l0.1-0.1h0.1c0,0.5,0.4-0.2,0.4-0.2h-0.1l-0.2-0.2V9.6l-0.2,0.1h-0.1l-0.1,0.1h-0.1h-0.2L429,9.7l-0.1-0.2
					h0.2h0.3h0.1l0.4-0.1l-0.1-0.1l-0.2-0.1l-0.1,0.1h-0.2l-0.4-0.1L428.8,9l-0.1,0h-0.4l-0.2,0.2h0.4l0.1,0.2h-0.8v0.2l-0.1,0.1
					v0.1l0.5,0.1l0.2-0.1l0.2,0.2l0.1,0.2h-0.2h-2.3l-0.3-0.1l-2.2-0.1h-0.1l-0.1,0.2h-0.3l0.1,0.2l0.2,0.1c0,0.2-0.1,0.1-0.2,0.1
					c-0.3,0,0,0-0.3,0.1l0.2,0.2h0.6l-0.3,0.2c-0.1,0-0.3,0-0.3,0.2c0,0.1,0.2,0.3,0.2,0.3h0.1V12l0.5,0.2l-0.1,0.1h-0.2v0.1
					l-0.1,0.1h0.1l0.3-0.1v-0.1h0.1h0.1v-0.1h0.1c0.2-0.5,0-0.3,0.4-0.6v0.1l0.1,0.1h0.1l0.1-0.1l1.2,0.2l0.1,0.1h0.4l0.1,0.1
					l0.1,0.1c0.2,0.4,0.2,0.2,0.3,0.6h0.1v0.1V13l0.1,0.1l0.2,0.1l-0.1,0.1l-0.2-0.1l-0.1,0.1l0.3,0.6c0,0.3-0.1,0.3-0.1,0.7V15v0.2
					l0.1,0.1l0.5,0.8c0.2,0.3,0.6,1.3,0.8,1.7l0.3,0.3l-0.2-0.3l-0.5-0.9v-0.1l0.1-0.1l0.1,0.1l1,1.6v0.3l0.3,0.2h0.1l0.1,0.1h0.1
					l0.1,0.1l0.4,0.2l0.3-0.1l0.5,0.4c0.2,0.2,0.4,0.2,0.4,0.7h0.1h0.1l0.1,0.2h0.2l0.1,0.1v-0.2l0.2,0.1c0,0.3,0.1,0.3,0.1,0.6v0.1
					c0,0.4-0.3,0.4-0.4,1l0.1,0.2c-0.2,0.2-0.1,0-0.2,0.6c0.3,0.2,0,0,0.3,0.3l0.1,0.3l0.1,0.1v0.1l0.1,0.1L433,24l0.3,0.5l0.1,0.1
					l0.3,0.2l-0.5,3.8l0.2,0.1l-0.1,0.3v0.3l-0.1,0.3V30v0.1h-0.1v0.1l0.1,0.2l0.1,0.1l0.1,0.2l0.1,0.1l0.2-0.1V31l0.1,0.1h0.3
					c0.1-0.4-0.3,0.1-0.3-0.5c0-0.3,0.2-0.4,0.3-0.6l-0.1-0.5l0.3-0.2v-0.5h0.3l0.1-0.3h0.3h0.1l0.2-0.3l-0.1-0.3h0.2h0.1l0.2-0.3
					l0.2-0.5l0.2-0.2v-0.2v-0.1v-0.2l0.3-0.3h0.1l0.1-0.1h0.3l0.4-1.7l0.1-0.1l0.3-0.5v-0.5C438,22.8,437.6,22.5,437.5,22.4
					L437.5,22.4z"/>
				<polygon id="Fill-8" class="st21" points="452.7,8.8 453,8.8 453.4,8.8 453.4,8.6 453.1,8.6 453,8.5 452.7,8.5 452.7,8.6 
					452.7,8.6 				"/>
				<g id="Clip-11">
				</g>
				<polygon id="Fill-10" class="st21" points="432.8,11.7 433,11.7 433,11.5 432.8,11.5 				"/>
				<path id="Fill-12" class="st21" d="M432.5,9.5h0.4l-0.5-0.1c-0.4,0-0.5-0.1-0.8-0.2l0.2,0.3H432.5z"/>
				<path id="Fill-13" class="st21" d="M443.8,8.8L443.7,9l0.1,0.1h0.1h0.1l0.1-0.2h0.1l0.1-0.1l0.1-0.1h0.1h0.5l0.1-0.2h-0.7
					c-0.2,0-0.2,0.1-0.4,0.1h-0.2l-0.5,0.2l0.2,0.1L443.8,8.8z"/>
				<path id="Fill-14" class="st21" d="M422.2,10.8l-0.2-0.2l-0.5-0.1v0.3l0.7,0.3l0.4-0.3c-0.1-0.1-0.1-0.1-0.2-0.1
					C422.1,10.7,422.3,10.7,422.2,10.8"/>
				<polygon id="Fill-15" class="st21" points="421.6,10.1 421.8,10.1 421.8,9.9 421.6,9.9 				"/>
				<path id="Fill-16" class="st21" d="M429.5,8.8c-0.2,0-0.4,0-0.4,0.2C429.6,9,429.4,9.1,429.5,8.8"/>
				<polygon id="Fill-17" class="st21" points="430.7,8.9 430.7,8.8 430.2,8.7 430.4,8.9 				"/>
				<polygon id="Fill-18" class="st21" points="430.6,9.4 430.7,9.4 430.9,9.4 430.9,9.1 430.8,9.1 430.6,9.1 				"/>
				<path id="Fill-19" class="st21" d="M431.1,9.5h0.1h0.1c-0.1-0.3-0.1,0-0.1-0.2l0.1-0.2h-0.2V8.8l-0.2,0.1l0.3,0.2L431.1,9.5z"/>
				<polygon id="Fill-20" class="st21" points="424.3,18.8 424.4,18.8 424.4,18.5 424.3,18.5 				"/>
				<polygon id="Fill-21" class="st21" points="458.6,9.5 458.6,9.3 458.3,9.3 457.7,9.3 457.7,9.5 458.2,9.5 				"/>
				<path id="Fill-22" class="st21" d="M444.4,8.8V9h0.4C444.6,8.7,444.8,8.8,444.4,8.8"/>
				<polygon id="Fill-23" class="st21" points="441.3,13.2 441.3,12.9 441.3,12.7 441,12.9 441,13.2 441,13.3 441.1,13.3 				"/>
				<path id="Fill-24" class="st21" d="M459.2,23c0.1,0,0.3-0.3,0.3-0.5l-0.5,0.3C459,23,459,23,459.2,23"/>
				<path id="Fill-25" class="st21" d="M457,16.1l-0.1,0.1l-0.1,0.1v0.3h0.2v-0.3l0.2,0.1l0.1-0.1l0.1-0.1l0.2,0.1l0.1-0.1l0.3-0.1
					l0-0.1l0.1-0.4l0.1-0.1v-0.2l-0.1-0.3h0.1l0.3-0.2l-0.3-0.3l-0.1,0.1l-0.2,0.2L458,15l-0.1,0.1v0.2l-0.1,0.3h-0.1
					c-0.1,0.1-0.1,0.2-0.3,0.2h-0.1C457,16,457.2,15.9,457,16.1"/>
				<path id="Fill-26" class="st21" d="M457,22.6v-0.2h-0.3C456.8,22.7,456.6,22.5,457,22.6"/>
				<path id="Fill-27" class="st21" d="M457.7,22.1l-0.3,0.3l-0.1-0.5H457l0.1,0.2v0.3h0.2l0.2,0.1l0.2,0.2l-0.1,0.4l0.4,0.1h0.2
					l0.1-0.4l0.2,0.1c0.2,0.4,0.1,0.4,0.5,0.5l-0.4-0.6l0.1-0.2L457.7,22.1z"/>
				<polygon id="Fill-28" class="st21" points="455.8,23.7 456,23.3 455.7,23.3 455.8,23.5 455.6,23.5 				"/>
				<polygon id="Fill-29" class="st21" points="456,19.7 456.1,19.8 456.1,19.5 				"/>
				<polygon id="Fill-30" class="st21" points="434.4,19 434.5,19 434.5,18.8 434.4,18.8 				"/>
				<path id="Fill-31" class="st21" d="M448.7,14.7l0.1-0.5l0.3-0.1v0.5L448.7,14.7z M448.2,15.8h-0.3c-0.1,0-0.1,0-0.2-0.1v-0.5
					l-0.3-0.6v-0.3l0.7-0.2v0.2c-0.3,0.1-0.2,0-0.2,0.4l0.2,0.1h0.1l0.1,0.2h-0.2L448.2,15.8z M446.9,19.6l-0.1,0.1l-0.2-0.2
					l-0.4-0.7v-0.4l-0.4-1v-0.1h0.1l0.1,0.1l0.1,0.1l0.1,0.1c0.1,0.3,0.1,0.5,0.3,0.8c0.1,0.2,0.3,0.5,0.4,0.7V19.6z M445.7,22.3
					v-0.4h0.2L445.7,22.3z M445.2,16.8l-0.1-0.1c-0.4,0-0.4-0.2-0.6-0.2c-0.1,0-0.2,0.3-0.2,0.5l-0.4-0.1l-0.2-0.3h-0.1h-0.1
					c-0.3,0-0.2-0.2-0.2-0.4V16h-0.5c-0.5,0-0.6,0.2-1,0.3l-0.2-0.1l0.3-0.1c0-0.1,0.2-0.6,0.3-0.6c0.2-0.5,0.2,0.2,0.4-0.5h0.2
					l0.1-0.1l0.1-0.1h0.2l0.3,0.4l0.2,0.2l0.1,0.1l-0.1,0.2h-0.2c0,0,0.3,0.5,0.3,0.1l0.1-0.1c0-0.1,0.1-0.1,0.1-0.2
					c-0.1,0,0-0.1,0,0c0,0,0.1,0,0.1-0.1l-0.1-0.2l-0.2-0.1h-0.1l-0.4-0.6h0.2l0.3,0.3l0.2,0.1l0.1,0.1l0.1,0.1v0.2l0.3,0.5l0.2-0.1
					l-0.1-0.5l0.2-0.1h0.1h0.1l0.1,0.3l0.1,0.2l0.1,0.1l0.2,0.1l0.1-0.1h0.1l0.1,0.5h0.1v-0.3h0.1h0.1l-0.1,0.8h-0.2l-0.3,0.1
					L445.2,16.8z M445.3,11.8V12l-0.4-0.1L445.3,11.8L445.3,11.8z M445.5,14.2l0.1-0.1l0.1,0.1l0.1,0.2l0.1,0.1v-0.2h-0.1v-0.1h0.1
					l0.4-0.1l-0.1,0.5l0.3,0.1l0.1,0.3l-0.1,0.2h-1.1l-0.5,0.1l0.1-0.1l-0.1-0.3l0.1-0.1v-0.2l0.1-0.1L445.5,14.2z M446.1,11.4
					l0.1,0.3l-0.1,0.1l-0.1-0.1L446.1,11.4z M446,10.9h0.5V11h-0.2c-0.1,0-0.1,0-0.2,0.1H446V10.9z M462.3,10.4l-0.1-0.1l-0.7,0.1
					c-0.2-0.1-0.2-0.1-0.4-0.1h-0.4c-0.2,0-0.2,0-0.3,0.1l-0.2-0.2l-1.1-0.1c-0.1-0.2-0.1-0.4-0.3-0.1h-0.2
					c-0.2-0.3-0.1-0.3-0.5-0.3v0.2l-0.2,0.2h-0.2h-0.8l-0.2-0.4h-1.8l0.1-0.3l-0.1-0.1h-0.1h-0.5V9H454l0,0l-0.1-0.3
					c-0.4,0-0.3-0.1-0.5,0.2h0.2V9l-0.9,0.2l-0.6,0.1H452l-0.1,0.1l-0.1,0.1h-0.5v0.2H451l-0.5,0.1l0.1,0.1l0.1,0.3v0.2l-0.1,0.2
					h-0.1l-0.1-0.1l0.1-0.3l-0.1-0.1V9.8h-0.2c-0.2,0-0.3,0.2-0.4,0.4l0.1,0.1l-0.1,0.1l-0.2-0.1h-0.1l-0.5-0.1v0.2h-0.1h-0.5h-0.6
					v-0.2h-0.1c0,0.1,0,0.2,0,0.2l0.1,0.1h-0.1l-0.4,0.1v-0.2h-0.2v0.3h-0.3h-0.1l-0.4-0.3l-0.1-0.1c-0.5,0-0.6-0.2-1.1-0.2H445
					c-0.2,0-0.2,0.1-0.4,0.1l-0.5,0.2l-0.1,0.1l-0.1,0.1h-0.2l-0.1,0.1l-0.1,0.2l-0.2,0.1l-0.1,0.1l-0.1,0.1l-0.2,0.1h-0.1l-0.1,0.1
					v0.2h0.1V12c0,0.2,0,0.3,0.1,0.3c0.2,0,0.1,0,0.2-0.2h0.1l0.1,0.1l0.1,0.1h0.1v0.1l-0.1,0.3c1,0,0.4-0.5,0.9-0.7v-0.2h-0.2
					l0.1-0.4l0.3-0.2c0.1-0.1,0.3-0.2,0.4,0l-0.1,0.1l-0.2,0.1v0.4h0.1l0.2,0.6l-0.3-0.1l-0.1,0.6h-0.4H444l-0.2,0.1h-0.1l-0.3-0.1
					h-0.1v-0.2l0.1-0.2v-0.1h-0.1l-0.1,0.2v0.1v0.1V13h-0.3l-0.1,0.2h-0.1v0.2h-0.2l-0.1,0.1v-0.1l0.1-0.3l-0.1-0.1l-0.4,0l-0.1-0.1
					l-0.1-0.1l-0.1-0.1v-0.3h-0.1h-0.1l-0.1-0.1l-0.1,0.1v0.2c0.1,0.2,0.2,0.2,0.3,0.4l-0.1,0.1l-0.1,0.1l-0.1,0.3h0.4l0.2,0.1
					l-0.2,0.1h-0.4l0.1,0.2h0.1l0.2,0.3v0.2v0.1H441c0,0.5-0.1,0.7,0,0.9v0.1l0.3,0.3l-0.1,0.2l-0.1,0.1l-0.2,0.3
					c-0.3,0.6-0.4,0.6-0.6,1l-0.2,0.7c0.1,0.2,0.1,0.2,0.1,0.5V19v0.5v0.2c0.4,0.8,0.3,0.8,0.8,1.4l0.7-0.1h0.2l0.1-0.1h0.5l0.1,0.4
					l0.1-0.1h0.2l0.1,0.2v0.3v0.2V22l-0.1,0.1l0.4,0.6c0.1,0.3,0.2,0.5,0.2,0.9v0.2c0,0.4-0.2,0.2-0.2,0.5v0.3c0,0.4,0.2,0.8,0.3,1
					c0,0.5,0.4,1.9,0.6,1.9h0.5c0.4,0,1-0.8,1-1.5c0.1-0.1,0.3-0.1,0.3-0.3c0-0.3,0-0.3-0.1-0.6l0.6-0.7v-1l-0.1-0.5v-0.3l0.1-0.1
					l0.1-0.1l0.7-1l0.3-0.6v-0.1l0.1-0.1l0.1-0.7h-0.1l-0.5,0.1H447v-0.3h0.1l0.1-0.1l0.5-0.2h0.1l0.2-0.3l0.4-0.2l0.1-0.1l0.1-0.1
					v-0.1c0.1-0.1,0.2-0.2,0.2-0.3c0-0.1-0.1-0.2-0.2-0.3h-0.1l-0.1-0.3l-0.3,0.3H448v-0.1v-0.3l-0.2-0.1l-0.2-0.1v-0.3h0.2l0.4,0.5
					l0.4,0.1l0.1,0.1h1.1V18c0.2,0.2,0.3,0.4,0.4,0.7l0.1-0.1l0.1-0.1l0.1,0.7l0.1,0.7v0.2l0.1,0.1l0.1,0.6l0.4-0.5v-0.8l0.5-0.5
					c0.3-0.3,0.3-0.2,0.5-0.7h0.2l0.1-0.1l0.3,0.5l0.2,0.5h0.1l0.1,0.2v0.1l0.1,0.1v0.2c0,0.4-0.2,0.5,0,0.7l0.1,0.1l0.1,0.5v0.1
					l0.1,0.3l-0.6-0.6l0.6,1.3l0.6,0.8l0.1,0.1l0.8,0.3h0.1c0.3,0,0.1,0.1,0.5,0.1v-0.2l-0.7-0.2l-0.7-0.1v-0.7l-0.3-0.2V22
					l-0.1-0.1l-0.1-0.1h0.1l0.2,0.1l-0.1-0.7l-0.2-0.2h-0.1l-0.1-0.1v-0.2l-0.1-0.1l0.1-0.7l0.5,0.6l0.4-0.1l0.2-0.1v-0.2
					c0-0.5,0-0.2-0.1-0.3v-0.1c-0.1-0.1-0.3-0.5-0.3-0.6c0-0.3,0.1-0.3,0.2-0.5l0.2,0.1l0.1-0.1h0.1h0.1l0.1-0.2h0.3l0.6-1v-0.2
					l-0.1-0.3l-0.2-0.5l0.2-0.2l0.2-0.2H456h-0.1l-0.2-0.2l0.2-0.3l0.1-0.1v0.4l0.1-0.1h0.1h0.1l0.1,0.3h0.1v0.1v0.3h0.1
					c0.1,0,0.2,0,0.2-0.2c0-0.3-0.1-0.3-0.2-0.6c0.4-0.1,0.1-0.3,0.5-0.6h0.3l0.7-1v-0.3l0.1-0.1v0.9h0.1v-0.4l0.1-0.1l-0.1-0.6
					l-0.1-0.1l-0.2,0.2v-0.1l-0.2-0.2l-0.1,0.1l-0.4-0.1c0.3-0.6,1-0.9,1.8-0.9l0.1,0.1h0.2c0.1-0.2,0.2-0.4,0.5-0.4
					c0.2,0,0.2,0.1,0.4,0.1l0.1-0.1l0.1-0.1l0.1,0.1v0.1l-0.1,0.1h-0.1l-0.1,0.1c-0.2,0.1-0.7,0.4-0.7,0.8v0.1c0,0.3,0,0.3,0.1,0.6
					l0.3-0.4l0.1-0.1l0.1-0.1h0.1V13h0.2l-0.2-0.4v-0.1l0.1-0.1l0.2-0.1l1.1-0.2l0.1-0.1h0.1h0.1h0.1h0.1v-0.1h-0.1l-0.1-0.1
					l0.1-0.1v-0.1v-0.7L462.3,10.4L462.3,10.4L462.3,10.4z"/>
				<polygon id="Fill-32" class="st21" points="443,14.9 443,15.1 443,15.4 443.1,15.4 443.1,15.1 443.2,14.9 443,14.7 				"/>
				<path id="Fill-33" class="st21" d="M447.6,10.5C447.5,10.4,447.6,10.6,447.6,10.5"/>
				<path id="Fill-34" class="st21" d="M456.1,23.6l0.3-0.2C456.1,23.4,456.3,23.2,456.1,23.6"/>
				<path id="Fill-35" class="st21" d="M460.7,25.3c0.1,0.4-0.1,0.3,0.3,0.3L460.7,25.3z"/>
				<path id="Fill-36" class="st21" d="M461.9,28v0.2l-0.1,0.1l0.1,0.1l-0.1,0.3l-0.1-0.1l-0.1,0.1c-0.1,0.1-0.1,0.2-0.2,0.3h-0.1
					h-0.2l-0.2,0.3l0.1,0.1h0.3l0.1-0.2l0.1-0.1h0.1l0.1-0.1l0.1-0.1l0.1-0.1l0.2-0.2l0.1-0.1l0.1-0.2h0.1l0.1-0.2h-0.3L461.9,28z"
					/>
				<polygon id="Fill-37" class="st21" points="461.8,27.9 461.9,27.9 461.9,27.7 461.8,27.7 				"/>
				<path id="Fill-38" class="st21" d="M455.6,22l-0.1,0.1l0.1,0.6l0.1,0.1v-0.5l0.2,0.4v-0.2v-0.1L456,22H455.6l0.4-0.1
					c0.2,0,0.1,0,0.2-0.2h-0.4C455.7,21.7,455.7,21.8,455.6,22"/>
				<polygon id="Fill-39" class="st21" points="456.3,19.8 456.2,19.8 456.2,20.1 456,19.9 456,19.9 455.9,20 456,20.4 455.9,20.8 
					456.1,20.7 456.2,20.9 456.3,20.9 456.4,20.5 456.4,20.4 456.3,20.5 456.1,20.5 456.3,20 				"/>
				<path id="Fill-40" class="st21" d="M440.4,11l-0.2-0.1l-0.5,0.1h-0.1l-0.1,0.2h0.1v0.1c0.2,0.1,0.1,0.1,0.3,0.1
					c0.2,0,0.2-0.2,0.5-0.2L440.4,11z"/>
				<path id="Fill-41" class="st21" d="M447.6,24l-0.1,0.2l-0.1,0.1l-0.1,0.1l-0.1,0.1H447v0.6c0,0.3-0.1,0.2-0.1,0.5l0.1,0.6
					c0.6-0.2,0.3-0.5,0.6-1.2v-0.3l0.1-0.1v-0.1L447.6,24L447.6,24z"/>
				<path id="Fill-42" class="st21" d="M439,10.1h0.2l0.3,0.1l-0.1-0.2V9.8l0.2-0.1l0.1-0.1l0.1-0.2l-0.2-0.1l0.1-0.3h-0.1l0.1-0.1
					h0.1l0.1-0.1l0.7-0.5l-1,0.1V8.1L439,8l-1.3,0.1H437v0.1h-0.1c0-0.3-0.7,0-0.9,0h-0.3l-0.5,0.1H435l0.2-0.2H435l-2.7,0.1h-0.1
					l-0.1,0.1l0.4,0.2l-0.1,0.1l-0.5-0.1V8.4h-0.3l-0.1,0.1v0.2c0.3,0,0.5,0.4,0.6,0.1h0.1l0.1,0.1l0.2-0.1v0.1l-0.2,0.2h0.2h0.9
					l0.1-0.2h0.1h0.2l-0.1-0.2h0.2V8.6l0.8-0.2h0.1l0.1,0.1h-0.1v0.1h0.1v0.1h-0.4v0.1h-0.3h-0.1V9h0.2c0.1,0.5,0.7,0.3,1.2,0.3
					l0.3,0.2l0.1,0.1l0.1,0.1V10l0.1,0.1h0.3l0.1,0.1v0.2h-0.1v0.2H436l0.1,0.3l0.1,0.1c0.2,0.5,0.1,0.4,0.5,0.7l0.5,0.1l0.2-0.4
					l0.2-0.4h0.2h0.3l0.4-0.5h0.7l0.1-0.1h0.1h0.1v-0.2L439,10.1z"/>
				<path id="Fill-43" class="st21" d="M433.8,18.9h0.3h0.1v-0.2h-0.1c0-0.2-0.1-0.1-0.2-0.1c-0.2,0-0.2,0-0.4-0.1l-0.4-0.2H433
					l-0.2-0.2h-0.1c-0.2,0-0.1,0-0.2,0.2h0.2c0.2,0,0.2,0,0.4,0.1l0.2,0.1l0.1,0.2h0.1h0.3l-0.2,0.2H433.8L433.8,18.9L433.8,18.9z"
					/>
				<polygon id="Fill-44" class="st21" points="433.1,19 433.3,19 433.3,18.8 433.1,18.8 				"/>
				<polygon id="Fill-45" class="st21" points="451.3,20.4 451.1,20.4 451.1,20.8 451.4,20.9 451.3,20.6 				"/>
				<polygon id="Fill-46" class="st21" points="458.6,28.7 458.6,29.1 458.8,29.1 458.9,29 458.9,28.7 458.8,28.7 				"/>
				<polygon id="Fill-47" class="st21" points="454.4,18.8 454.7,18.6 454.6,18.5 				"/>
				<polygon id="Fill-48" class="st21" points="455.9,18 455.9,17.7 455.7,18.1 455.9,18.2 				"/>
				<polygon id="Fill-49" class="st21" points="455.7,19.5 455.8,19.5 455.8,19.6 455.8,19.7 455.8,19.8 455.9,19.8 455.9,19.7 
					455.9,19.2 456,19.1 456,19 455.9,18.9 455.8,18.9 455.7,19.2 				"/>
				<polygon id="Fill-50" class="st21" points="454.4,22 454.6,22.1 455,22.5 455.1,22.6 455.5,21.6 455.4,21.5 455.4,21.2 
					455.5,21.1 455.6,20.9 455.4,20.9 455.3,20.9 454.6,21.7 454.4,21.6 				"/>
				<path id="Fill-51" class="st21" d="M458.6,24.7l-0.1-0.3l-0.1-0.1l-0.1-0.2V24l-0.1-0.1V24v0.4l-0.1,0.2l-0.5-0.1l-0.1-0.1
					l0.1-0.5h-0.2h-0.2l-0.1,0.1l-0.1,0.1l-0.1,0.2l-0.2-0.1c-0.6,0.2-0.5,1-1.3,1.1l-0.3,0.2v0.2c0,0.2,0,0.3,0.1,0.3
					c0,0.7,0,1.6,0.5,1.6l0.1-0.1h0.1h0.4l0.3-0.3h0.2l0.1-0.1l0.7,0.5l0.1,0.1l0.2-0.1l-0.1,0.4l0.3-0.1l0.1,0.5h0.2h0.5l0.3-0.3
					l0.1-0.1v-0.1l0.1-0.1v-0.1l0.2-0.3v-0.9l-0.8-1.3L458.6,24.7z"/>
			</g>
		</g>
	</g>
</g>
<g id="jp_1_">
	<g id="Flag-_x2F_-Region-_x2F_-Japan_1_">
		<g id="Mask_7_">
		</g>
		<g id="jp_2_">
			<g id="Path_26_">
			</g>
			<g id="Group_8_">
				<polygon id="Path_25_" class="st4" points="368,0 416,0 416,48 368,48 				"/>
				<circle id="Oval_1_" class="st22" cx="392" cy="23.3" r="10.8"/>
			</g>
		</g>
	</g>
</g>
<g id="kr">
	<g id="Flag-_x2F_-Region-_x2F_-Korea_1_">
		<g id="Mask_13_">
		</g>
		<g id="kr_2_">
			<g id="Path_96_">
			</g>
			<g id="Group_16_">
				<g transform="translate(-5.625000, -0.046875)">
					<polygon class="st4" points="369.6,0.1 369.6,48 321.7,48 321.7,42.9 321.6,42.8 321.7,42.8 321.7,0.1 					"/>
					<path id="Path_95_" class="st4" d="M345.4,24.1c0,5.8-4.7,10.5-10.6,10.5s-10.6-4.7-10.6-10.5s4.7-10.6,10.6-10.6
						S345.4,18.3,345.4,24.1L345.4,24.1z"/>
					<path id="Path_94_" class="st23" d="M358.6,24.7c0.1,5-2.4,9.7-6.7,12.2s-9.6,2.5-13.9,0s-6.8-7.2-6.7-12.2
						c-0.1-5,2.4-9.7,6.7-12.2s9.6-2.5,13.9,0S358.7,19.7,358.6,24.7L358.6,24.7z"/>
					<path id="Shape_38_" d="M324.9,2.9l-3.2,3.7v3.8l5.1-5.9L324.9,2.9z M327.5,5.1l-5.8,6.7v3.7l7.6-8.8L327.5,5.1z"/>
					<polygon class="st24" points="326.8,4.5 321.7,10.3 321.7,6.6 324.9,2.9 					"/>
					<path id="Shape_37_" d="M324.9,2.9l-3.2,3.7v3.8l5.1-5.9L324.9,2.9z M330.1,7.3l-7.9,9.1l1.9,1.6l7.9-9L330.1,7.3z"/>
					<polygon class="st24" points="326.8,4.5 321.7,10.3 321.7,6.6 324.9,2.9 					"/>
					<path id="Shape_36_" d="M324.9,2.9l-3.2,3.7v3.8l5.1-5.9L324.9,2.9z M369.3,8.1l-1.4-1.6l-3.1-3.6L363,4.4l3.1,3.7l1.4,1.6
						l2.2,2.5V8.5L369.3,8.1z M364.2,12.7l-1.5-1.7l-3.1-3.7l-1.9,1.6l3.2,3.8l1.4,1.7l3.2,3.7l1.9-1.6L364.2,12.7z"/>
					<polygon id="Path_93_" class="st4" points="360.9,12.6 368.3,6.2 369.6,7.8 361.8,14.9 					"/>
					<path id="Shape_35_" d="M368.1,33.4l-3,3.6l-1.4,1.7l-3.1,3.7l1.8,1.5l3.1-3.7l1.4-1.7l2.7-3.2v-0.6L368.1,33.4z M366.8,10.4
						l-1.4-1.7L362.3,5l-1.9,1.6l3.1,3.7L365,12l3.2,3.8l1.5-1.3v-0.8L366.8,10.4z M367.6,39.2l-1.4,1.7l-3.1,3.7l1.9,1.5l3.1-3.7
						l1.4-1.6l0.2-0.2v-3.8L367.6,39.2z M365.5,31.3l-3,3.6l0,0l-1.4,1.6l-3.1,3.7l1.8,1.5l3.1-3.7l1.4-1.7l3-3.5L365.5,31.3z"/>
					<path id="Path_92_" class="st25" d="M331.5,22.3c0.4,3.5,1.1,7.3,6.4,7.7c2,0.1,5.9-0.5,7.2-5.9c1.8-5.2,7-6.7,10.6-3.9
						c2.1,1.3,2.6,3.4,2.8,5c-0.2,5.1-3.1,9.5-6.8,11.4c-4.3,2.6-10.3,2.6-15.5-1.3C333.8,33.2,330.5,29.1,331.5,22.3z"/>
					<polygon class="st4" points="369.6,40.8 369.6,41.6 368.6,42.8 368.1,42.3 366.3,40.8 365.5,40.2 363.7,38.7 362.9,38.1 
						361.1,36.5 360.5,36 362.5,34.9 362.5,34.9 362.6,34.8 362.6,34.8 364.4,36.3 365.1,37 367,38.5 367.6,39.2 369.5,40.7 					
						"/>
					<polygon class="st24" points="329.3,42.7 327.4,44.3 324.2,40.5 322.8,38.8 321.7,37.6 321.7,33.8 324.6,37.2 326.1,38.9 					
						"/>
					<polygon class="st4" points="328.9,36.3 328.6,36.6 326.8,38.3 326.1,38.9 324.2,40.5 323.5,41.2 321.7,42.8 321.7,39.8 
						322,39.5 322.8,38.8 324.6,37.2 325.4,36.6 327.2,35 327.6,34.7 					"/>
					<path id="Shape_34_" d="M328.6,36.6l-1.4-1.6l-3.1-3.7l-1.9,1.6l3.1,3.7l1.4,1.6L330,42l1.9-1.6L328.6,36.6z M323.5,41.2
						l-1.5-1.7l-0.3-0.4v3.7l0,0v0.1l3.1,3.6l1.9-1.6L323.5,41.2z"/>
				</g>
			</g>
		</g>
	</g>
	<polygon class="st26" points="316.1,42.8 316.1,42.9 316,42.8 	"/>
</g>
<g id="my_1_">
	<g id="Flag-_x2F_-Region-_x2F_-Malaysia_1_">
		<g id="Mask_5_">
		</g>
		<g id="my_2_">
			<polygon id="Path_31_" class="st27" points="264,0 312,0 312,48 264,48 			"/>
			<polygon id="a_16_" class="st4" points="264,44.6 312,44.6 312,48 264,48 			"/>
			<g id="a-link_13_" transform="translate(0.000000, 18.839063)">
				<polygon id="a_15_" class="st4" points="264,18.9 312,18.9 312,22.3 264,22.3 				"/>
			</g>
			<g id="a-link_12_" transform="translate(0.000000, 15.407813)">
				<polygon id="a_14_" class="st4" points="264,15.4 312,15.4 312,18.9 264,18.9 				"/>
			</g>
			<g id="a-link_11_" transform="translate(0.000000, 11.981250)">
				<polygon id="a_13_" class="st4" points="264,12 312,12 312,15.4 264,15.4 				"/>
			</g>
			<g id="a-link_10_" transform="translate(0.000000, 8.550000)">
				<polygon id="a_12_" class="st4" points="264,8.6 312,8.6 312,12 264,12 				"/>
			</g>
			<g id="a-link_9_" transform="translate(0.000000, 5.123438)">
				<polygon id="a_11_" class="st4" points="264,5.2 312,5.2 312,8.6 264,8.6 				"/>
			</g>
			<g id="a-link_8_" transform="translate(0.000000, 1.692188)">
				<polygon id="a_10_" class="st4" points="264,1.7 312,1.7 312,5.2 264,5.2 				"/>
			</g>
			<polygon id="Path_30_" class="st28" points="264,0 294,0 294,27.4 264,27.4 			"/>
			<g id="Group_10_" transform="translate(1.406250, 2.390625)">
				<path id="Path_29_" class="st29" d="M274.2,2.5c-2.3,0-4.5,0.9-6.2,2.5c-1.6,1.6-2.6,3.9-2.6,6.2c0,3.2,1.7,6.1,4.6,7.7
					c2.8,1.5,6.2,1.4,8.9-0.4c-0.8,0.3-1.7,0.4-2.5,0.4c-2,0-4-0.8-5.5-2.3c-1.5-1.4-2.3-3.4-2.3-5.5c0-4.3,3.5-7.7,7.7-7.7
					c0.9,0,1.8,0.2,2.7,0.5C277.7,3,276,2.5,274.2,2.5L274.2,2.5z"/>
				<polygon id="Path_24_" class="st29" points="288.7,15.7 285,13.8 286.1,17.7 283.7,14.4 282.9,18.4 282.1,14.4 279.7,17.7 
					280.8,13.8 277.1,15.7 279.8,12.6 275.6,12.8 279.5,11.2 275.6,9.6 279.8,9.7 277.1,6.7 280.8,8.6 279.7,4.6 282.1,7.9 
					282.9,3.9 283.7,7.9 286.1,4.6 285,8.6 288.7,6.7 286,9.7 290.2,9.6 286.3,11.2 290.2,12.8 286,12.6 				"/>
			</g>
		</g>
	</g>
</g>
<g id="roa_1_">
	<g id="Flag-_x2F_-Country-_x2F_-ROA_1_">
		<g id="Mask_6_">
		</g>
		<g id="roa_2_">
			<g transform="translate(-2.000000, 0.000000)">
				<rect x="214" y="0" class="st30" width="48" height="48"/>
				<polygon id="Fill-2_3_" class="st31" points="250.6,19.6 250.4,19.6 250.3,19.7 250.2,19.6 250,19.6 249.9,19.6 249.8,19.8 
					249.8,20 249.9,20.3 250,20.4 250,20.6 249.9,20.8 250.2,20.8 250.3,20.8 250.5,20.7 250.8,20.6 250.9,20.5 251,20.5 251,20.4 
					250.9,20.1 251,19.9 251,19.7 250.9,19.6 250.8,19.5 				"/>
				<polygon id="Fill-3_3_" class="st31" points="250.4,34.9 250.3,35.1 250.1,35.2 250,35.3 249.8,35.4 249.6,35.5 249.5,35.6 
					249.5,35.8 249.7,35.8 249.9,35.8 250,36 250.1,36.1 250.3,36 250.5,36 250.6,35.8 250.9,35.8 251,35.8 251,35.5 250.9,35.5 
					250.6,35.4 250.5,35.2 250.5,35 250.4,34.8 				"/>
				<polygon id="Fill-4_3_" class="st31" points="233.6,36.8 233.7,37.1 233.7,37.5 233.7,37.7 233.8,37.8 233.9,37.9 234,38 
					234.2,38 234.5,37.7 234.6,37.5 234.6,37.5 234.5,37.3 234.4,37.2 234.2,37.1 234.1,37 234,36.9 233.9,36.9 233.8,36.8 
					233.7,36.7 				"/>
				<polygon id="Fill-5_3_" class="st31" points="247.9,16.9 247.9,17 248,17.2 248.2,17.4 248.4,17.6 248.7,17.9 248.8,18 
					248.9,18.3 248.9,18.6 249.1,18.8 249.3,19 249.6,19.1 249.8,19.2 249.9,19.2 249.8,19.1 249.8,18.8 249.6,18.6 249.3,18.5 
					249.2,18.4 249.2,18.2 249.3,18.2 249.4,18.1 249.4,18.1 249.3,18 249.1,17.9 249,17.8 248.8,17.6 248.5,17.4 248.3,17.1 
					248.1,17 248,16.9 				"/>
				<polygon id="Fill-6_3_" class="st31" points="250.2,21 250.1,21.1 250.2,21.3 250.4,21.6 250.6,21.9 250.6,22.2 250.7,22.5 
					250.7,23 250.6,23.1 250.4,23.1 250.2,23 250.2,23.1 250.4,23.7 250.4,23.8 250.2,24 250,24 249.9,24 249.8,24.2 249.6,24.4 
					249.6,24.9 249.4,25.1 249.4,25.1 249.8,25.3 250,25.1 250,25 250.1,24.6 250.2,24.5 250.3,24.4 250.5,24.3 250.6,24.5 
					250.6,24.6 250.9,24.6 250.9,24.5 251,24.4 251,24.2 251.1,24.1 251.2,24 251.3,24 251.5,23.9 251.6,23.8 251.6,23.6 
					251.6,23.4 251.4,23.3 251.4,23.1 251.4,23 251.4,22.9 251.6,22.8 251.7,22.8 251.6,22.6 251.6,22.5 251.4,22.3 251.3,22.1 
					251.2,21.9 251.2,21.6 251.2,21.4 251.1,21.3 250.9,21.3 250.8,21.2 250.6,21.1 250.5,21 250.4,20.9 				"/>
				<polygon id="Fill-7_1_" class="st31" points="249.8,33.8 249.8,34 249.9,34 250,34.1 250.1,34.1 250.1,34 250,33.8 249.9,33.8 
									"/>
				<polygon id="Fill-8_2_" class="st31" points="249.1,25.5 249.2,25.6 249.2,25.8 249.3,25.9 249.4,26 249.6,26.2 249.7,26.3 
					249.8,26.4 249.9,26.4 250.1,26.3 250.1,26 250,25.9 249.9,25.7 249.9,25.5 				"/>
				<polygon id="Fill-9_1_" class="st31" points="249.4,34.6 249.4,34.7 249.4,34.8 249.4,34.9 249.5,35.1 249.6,35.1 249.7,35 
					249.8,34.8 249.8,34.7 249.6,34.6 249.6,34.6 				"/>
				<polygon id="Fill-10_2_" class="st31" points="250.2,24.9 250.1,25 250.1,25.2 250.1,25.3 250.3,25.3 250.4,25.3 250.5,25.3 
					250.6,25.2 250.6,25 250.4,24.8 250.3,24.8 				"/>
				<polygon id="Fill-11_1_" class="st31" points="248.9,34.3 248.7,34.4 248.8,34.6 248.9,34.6 249,34.7 249.1,34.7 249.1,34.6 
					249.2,34.4 249,34.3 				"/>
				<polygon id="Fill-12_2_" class="st31" points="250.8,37.4 250.7,37.5 250.6,37.7 250.5,37.7 250.3,37.8 250.1,38 249.9,38 
					249.6,38 249.3,38.1 249.2,38.2 249.1,38.3 249.1,38.5 249.1,39 249,39.2 248.8,39.3 248.8,39.5 248.8,39.6 248.8,39.8 
					248.9,40 248.9,40.3 248.9,40.5 249.1,40.6 249.3,40.6 249.4,40.5 249.4,40.4 249.4,39.7 249.6,39.8 249.6,40 249.8,40.2 
					250.2,40.2 250.2,40.1 250.2,39.9 250.1,39.8 249.9,39.7 249.8,39.6 249.8,39.4 249.9,39.2 250,39.1 250.1,38.9 250.2,38.8 
					250.1,38.9 249.9,39 249.7,39.1 249.4,39.1 249.3,39.1 249.5,38.8 249.6,38.6 249.8,38.4 250.1,38.3 250.4,38.2 250.6,38.1 
					250.8,38 251,37.9 251.1,37.8 251.1,37.7 251,37.5 250.9,37.4 				"/>
				<polygon id="Fill-13_2_" class="st31" points="245.9,41.5 245.7,41.5 245.6,41.6 245.4,41.7 245.3,41.8 245,41.7 244.6,41.7 
					244.3,41.7 244.2,41.6 244.1,41.7 244.1,41.9 244,42.1 244,42.2 244.1,42.3 244.6,42.3 245.1,42.3 245.8,42.3 246.1,42.2 
					246.5,42.3 246.9,42.3 247.2,42.3 247.4,42.3 247.6,42.4 247.3,42.2 247.3,42 247.3,41.9 247.3,41.8 247.3,41.7 247.2,41.6 
					247.1,41.6 246.8,41.6 246.6,41.7 246.4,41.7 246.3,41.6 246.2,41.5 246.1,41.5 246,41.5 				"/>
				<polygon id="Fill-14_2_" class="st31" points="248.4,36.7 248.2,36.7 248.1,36.6 248.1,36.4 248,36.4 247.8,36.3 247.6,36.4 
					247.5,36.6 247.4,36.8 247.3,37 247.3,37.1 247.1,37.3 246.8,37.4 246.8,37.6 246.6,38.1 246.5,38.2 246.3,38.3 246,38.3 
					245.9,38.4 245.9,38.5 245.9,38.6 245.9,38.8 245.7,38.9 245.4,38.9 245.1,38.9 245,38.9 244.8,39 244.8,39.2 244.8,39.4 
					244.9,39.4 245,39.5 245.1,39.6 245.2,39.7 245.3,40 245.5,40.2 245.6,40.4 245.9,40.4 246.1,40.2 246.3,40.2 246.6,40.3 
					246.8,40.3 247,40.2 247.3,40.3 247.6,40.5 247.8,40.5 248,40.2 248.1,39.8 248.2,39.6 248.2,39.5 248.1,39.5 248,39.5 
					247.8,39.3 248,39.2 248.2,39.1 248.3,39.1 248.4,39.1 248.4,38.9 248.3,38.8 248.3,38.4 248.7,38.4 248.7,38.3 248.5,38.2 
					248.4,38.1 248.2,38 248.1,37.8 248,37.7 248,37.4 248.1,37.2 248.3,37.2 248.4,37.2 248.6,37.2 248.5,37.1 248.5,37 
					248.5,36.9 248.7,36.9 248.7,36.8 248.6,36.7 				"/>
				<polygon id="Fill-15_2_" class="st31" points="251.4,41 251.3,41.1 251.1,41.2 250.9,41.4 250.8,41.5 250.6,41.8 250.7,41.9 
					250.9,41.9 251.1,41.8 251.4,41.4 251.6,41.3 251.7,41.2 251.7,41.1 251.8,41 				"/>
				<polygon id="Fill-16_2_" class="st31" points="247.9,31.9 247.9,32 248,32.2 248,32.4 248,32.7 248,32.8 247.8,33 247.8,33.1 
					247.9,33.3 248.1,33.4 248.4,33.5 248.6,33.7 248.8,33.7 248.7,33.5 248.8,33.5 248.6,33.4 248.5,33.3 248.5,33.1 248.6,32.7 
					248.6,32.3 248.6,32.1 248.5,32.1 248.4,32 248.3,31.9 248.1,31.8 248,31.8 				"/>
				<polygon id="Fill-17_2_" class="st31" points="239.9,38.2 239.6,38.2 239.4,38.2 239.4,38.3 239.4,38.4 239.6,38.5 239.8,38.6 
					240.1,38.8 240.5,38.9 240.8,39.1 241,39.3 241.1,39.6 241.2,39.7 241.2,40 241.3,40 241.4,40.1 241.5,40.1 241.7,40.2 
					241.8,40.3 241.9,40.5 241.9,40.7 242,40.9 242.1,41.1 242.2,41.2 242.6,41.3 243,41.4 243.1,41.5 243.2,41.7 243.3,41.9 
					243.6,41.9 243.7,41.8 243.9,41.8 243.9,41.8 243.9,41.5 243.9,41.3 243.9,41.2 244,41.1 244,40.9 244,40.8 243.8,40.6 
					243.6,40.6 243.5,40.5 243.3,40.4 243.2,40.2 243,40 243,39.8 242.9,39.7 242.7,39.7 242.5,39.7 242.4,39.6 242.3,39.4 
					242.2,39.2 242.1,39.2 241.9,39.2 241.6,39.2 241.4,39 241.2,38.8 241.2,38.8 241.1,38.7 240.9,38.6 240.8,38.5 240.7,38.4 
					240.6,38.3 240.2,38.3 240.1,38.2 				"/>
				<path id="Fill-18_2_" class="st31" d="M250.9,15l-0.4-0.4l-0.1-0.3v-0.2l-0.3-0.2v-0.6l-0.5-0.3l-0.2-0.3l-0.4-0.1l-0.4-0.3
					l-0.3-0.8l0.3-0.2l0.2-0.3l-0.5-1.1V9.7l0.2-0.3l-0.1-0.1L248,9.1l-0.5,0.2l-0.3,0.2V9.2L247,8.9l-0.3-0.1V8.6h0.1l0.1-0.1l0,0
					l0.1-0.1h0.1l0,0h0.1V8.1l0.2,0.1l0.1-0.2l-0.2-0.2H247l-0.5-0.3l-0.2,0.2l0.4,0.3l-0.1,0.2l-0.3,0.2l-0.4,0.3l-0.4,0.5
					l-0.2,0.4l-0.2,0.5l-0.1,0.4l-0.1,0.4h0.2l0.1,0.1H245l-0.7-0.1l-0.2,0.1l-0.3,0.6l-0.2,0.2l-0.4-0.3l-0.1,0.1l0.1,0.3H243h-0.3
					l-0.2,0.2l0.4,0.5l-0.7,0.3l-0.1,0.2l-0.5,0.1v-0.3l-0.4-0.1l-0.4,0.1l0.1,0.4l-0.2,0.1l-0.4-0.1l-0.7,0.2l-0.4,0.5l-0.1-0.2
					l0.1-0.5l0.5-0.4v-0.3l-0.3-0.2l-0.4,0.3v-0.4l-0.3-0.1l-0.2,0.1l-0.1,0.2l0.2,0.4h-0.9l-0.3,0.2l-0.3,0.3l-0.6,0.3l0.3,0.4
					l-0.3,0.2l-0.5-0.5l-0.2-0.1l-0.1,0.1l-0.3,0.8V15l0.3,0.3l0.2,0.8l-0.2,0.4l-0.2-0.2l0.1-0.5h-0.4h-0.7l0.1-0.2h0.4l0.1-0.2
					v-0.3v-0.5l0.1-0.4l0.2-0.6l-0.1-0.1l-0.1,0.1l-0.5,0.6l-0.1,0.3l-0.1,0.5l-0.4-0.8h-0.2l-0.1,0.3l-0.6,1l-0.5,0.6l-0.6,0.6
					l-0.3,0.3l-0.4,0.8l-0.1,0.5l0.1,0.4l-0.1,0.4l-0.5,0.4l-0.2,0.6l-0.7,0.4l-0.3,0.4h-0.4l-0.2-0.5l-0.3-0.4l-0.5-0.2l-0.4,0.4
					l-0.1,0.8l0.4,0.4l0.5,0.1l-0.2,0.3l0.1,0.5l-0.4-0.3l-0.3,0.2l-0.3-0.2l-0.2,0.2l0.2,0.6l-0.3,0.6l0.2,0.1l0.4-0.2l0.2,0.3
					l-0.3,0.2l-0.4,0.1l0.2,0.3l-0.2,0.4v0.5l-0.1,0.1l0,0h-0.3l-0.3-0.2l-0.3-0.1l-0.1-0.1l-0.1-0.2v-0.1v-0.3v-0.1l0.1-0.2v-0.2
					V23v-0.1l-0.1-0.1l-0.2,0.1l-0.2,0.1l-0.3-0.1l-0.1-0.1l-0.1-0.3l-0.1-0.1v-0.1l-0.1-0.4l-0.1-0.2l-0.1-0.2l-0.2-0.2l-0.3-0.1
					l-0.3-0.1l-0.3-0.3l-0.1-0.2l-0.1-0.2v-0.2l0,0l-0.2-0.1l-0.2-0.1l-0.2-0.2l-0.2-0.1l-0.2-0.1h-0.3l-0.1-0.1l-0.1-0.1l-0.2-0.1
					l-0.2,0.1h-0.1l-0.1-0.2l-0.1-0.2h-0.1l-0.1,0.1l-0.1,0.2v0.2l-0.1,0.1l-0.2,0.1l-0.1,0.1v0.4l0.1,0.2l-0.1,0.2l-0.1,0.3h0.3
					l0.1,0.1l0.1,0.2l0.2,0.1l0.2,0.1v0.2l0.1,0.2l0.1,0.2l0.2,0.1L222,22h0.2l0.2,0.1v0.3l-0.2,0.2l-0.3,0.3l-0.2,0.1l-0.2,0.2
					l-0.2,0.3l-0.3,0.2l0,0l-0.2,0.1l-0.2-0.1l-0.1-0.1l-0.1-0.1l-0.1,0.1l-0.1,0.1l-0.1,0.1V25l0.1-0.1l0.1-0.2l0.1-0.1v-0.1
					l0.1,0.1l-0.1,0.4v0.2l-0.1,0.2v0.4v0.6l0.1,0.4l0.1,0.4l0.1,0.4v0.3l-0.1,0.2l-0.1,0.2l-0.1,0.2l-0.1,0.1v0.3l0.1,0.1l0.1,0.2
					l0.2,0.2V29l0.1,0.2h-0.1v0.3l-0.1,0.2v0.6l0.1,0.2l0.1,0.2v0.2l-0.1,0.3v0.2l-0.1,0.2l0.1,0.1l0.1,0.1v0.1l0.1,0.1h0.1v0h0.4
					l0.1-0.1h0.4l0.1,0.1l0.1,0.1l0,0h0.1h0.1l0.1,0.1h0.1l0.1,0.1h0.5v-0.1h0.1l0.1-0.1h0.5l0.1,0.1h0.3l0.1-0.1h0.1l0,0h0.1V32
					h0.1v-0.1l0.1-0.1l-0.1-0.3l0.1,0.3h0.2l0.3,0.1l0.1,0.1h0.2l0.1-0.1l0.3-0.1h0.4l0.1-0.1v-0.2l0.1-0.1l0.3-0.3L227,31l0.3-0.2
					l0.1-0.1l0.1-0.2l0.1-0.2l-0.1-0.2l-0.1-0.2l-0.1-0.2l-0.1-0.2l-0.1-0.2l-0.2-0.3l-0.1-0.2v-0.4h-0.1l-0.1,0.1l-0.2,0.1
					l-0.1,0.1l-0.3,0.1h-0.4l-0.2-0.1l-0.1-0.1l-0.1,0.2v0.1l0.1,0.1l-0.1-0.1l0,0v-0.1l0.2-0.1l0,0l-0.1-0.1v-0.2l0.1-0.1l0.1-0.2
					l0.1-0.1l-0.1-0.1l-0.1-0.1l-0.1,0.1l-0.2,0.1l-0.1-0.2l-0.1-0.2l0.1-0.1v-0.2l-0.2-0.4l0,0v-0.4v-0.4l-0.1-0.1v-0.2v-0.2v-0.1
					l0.2,0.1l0.3,0.2l0.2,0.2l0.1,0.3l0.1,0.3l0.1,0.3l0.2,0.3l0.2,0.3l0.2,0.2l0.2,0.2h0.2h0.4l0.1,0.1l0.1,0.3l0.1,0.2l0.5,0.5
					l0.5,0.2l0.5,0.2l0.4,0.1l0.3,0.1h0.4l0.1,0.1l0.1,0.1l0.1,0.2l0.1,0.2l0.1,0.1l0.2,0.1l0.1,0.2v0.3L231,31h0.2l0.1,0.1v0.1
					l-0.1,0.1l-0.1,0.1h-0.2h-0.1l0.1,0.2l0.2,0.1l0.2,0.2l0.2,0.2l0.2,0.1h0.2L232,32v-0.2l0,0h0.1l0,0l0.1,0.2l-0.1,0.2l0.1,0.2
					v0.5l-0.1,0.2v0.6l0.1,0.3l0.1,0.2l0.2,0.3l0.1,0.3V35l0.1,0.4l0.1,0.2l0.3,0.3l0.1,0.2l0.2,0.4l0.1,0.4l0.1,0.4l0.1,0.1v-0.1
					l0.1-0.1l0.1-0.1l0.2-0.1l0.3-0.1h0.2l0.1-0.1v-0.4l0.1-0.2L235,36l0.1-0.3l-0.1-0.3l-0.1-0.2v-0.5l0.1-0.1h0.3l0.4-0.2l0.2-0.2
					L235,34l0.2-0.2l0.2-0.2l0.3-0.3l0.3-0.1l0.1-0.1h0.3l0.1-0.1v-0.3l0.1-0.1l0.1-0.1h0.1l0.2,0.1h0.2h0.1l0,0l0.1-0.1l0.1-0.2
					h0.1h0.2h0.1l0.1-0.1l-0.1-0.1v-0.2v-0.1l0,0l0.1,0.1l0,0.1l0.1,0.2v0.2l0.1,0.2l0.3,0.4l0.5,0.5l0.1,0.2l0.1,0.2l0.1,0.2
					l-0.1,0.3l-0.1,0.2l-0.2,0.1h0.1h0.1h0.2l0.3,0.1v-0.1l0.2-0.1l0.1-0.2l0.1-0.3l0.1,0.2l0.1,0.2l0.2,0.3V35l0.1,0.2l0.1,0.3
					l0.1,0.4v0.5l0.1,0.2l0.1,0.3l-0.1,0.2l0,0v0.2v0.1l0.1,0.1l0.3,0.2l0.3,0.3l0.2,0.3l0.2,0.2l0.1,0.2l0.1,0.2l0.1,0.2l0.1,0.3
					l0.1,0.1l0.2,0.1l0.3,0.1l0.3,0.1l0.2,0.1l0.2,0.1l0.1,0.1l0.1-0.1v-0.2l-0.2-0.2l-0.1-0.2l-0.1-0.3v-0.4l-0.1-0.2l-0.1-0.1
					l-0.2-0.2h-0.2l-0.3-0.1l-0.1-0.1l-0.1-0.2l-0.1-0.2l-0.1-0.2l-0.1-0.1l-0.1-0.1l-0.1-0.1l-0.1-0.2v-0.2l0.1-0.3v-0.3l-0.2-0.2
					v-0.1v-0.1l0.1-0.1l0.1-0.1l0.1,0.1h0.1l0.1,0.2l-0.1,0.1h0.4l0.3,0.1l0.2,0.2l0.1,0.3h0.2l0.4,0.1l0.1,0.2l0.1,0.1v0.3
					l-0.1,0.2v0.1h0.1h0.2h0.1l0.1-0.1v-0.2l-0.1-0.3v-0.2l0.1-0.1l0.4-0.1l0.3-0.1l0.2-0.2l0.1-0.3v-0.6l-0.1-0.4l-0.1-0.4
					l-0.2-0.2l-0.2-0.1l-0.3-0.2l-0.2-0.2l-0.1-0.3h-0.2v-0.2v-0.2l0.1-0.3l0.2-0.4l0.3-0.3l0.4-0.3l0.2,0.1l0.1,0.1l0.1,0.4h0.1
					h0.1l0.3-0.5l0.5-0.4l0.3,0.1l0.5-0.4l0.4-0.2l0.6-0.9l0.1-0.3l-0.1-0.5l0.2-0.2v-0.3l-0.1-0.3l0.2-0.4l-0.1-0.2L248,28
					l-0.2-0.2l0.2-0.4l-0.4-0.8h-0.2l-0.3-0.2l-0.2-0.2v-0.3l0.3-0.5l0.4-0.3l0.1-0.2h-0.3l-0.4,0.3l-0.5,0.1l-0.4-0.3l-0.1-0.1
					l0.1-0.1l0.3-0.1l0.2-0.2V24l0.2-0.2l0.3-0.1l0.1,0.4l0.1,0.3l0.5-0.6l0.3-0.1h0.2l0.1,0.1l-0.1,0.1v0.2v0.2l0.1,0.1v-0.1
					l0.1-0.1h0.1v0.1l0.1,0.1v0.4l0.1,0.2l0.1,0.2l0.2,0.1h0.4l0.1-0.1V25v-0.3l-0.1-0.2v-0.1v-0.1v-0.5l-0.1-0.1h-0.1l-0.1-0.1H249
					h-0.2l-0.1-0.1l-0.1-0.2v-0.1l0.1-0.1h0.1l0.1-0.1v-0.1v-0.1l-0.1-0.4v-0.3l0.1-0.2l0.1-0.2l0.1-0.1l0.5-0.2l0.2-0.2l0.3-0.7
					l0.1-0.4l0.1-0.5l-0.3-0.9l-0.3-0.6l-0.4-0.5l-0.5-0.5l-0.4-0.3v0.1l0.1,0.4l-0.2,0.2l-0.3-0.2l-0.4,0.2h-0.1l0.1-0.5l0.1-1.2
					l-0.3-0.6l1.1-0.6l0.1-0.2l-0.1-0.3l0.3-0.1l0.2,0.1l0.1-0.2l-0.1-0.4l-0.3-0.5l-0.1-0.2l0.1-0.2h0.2l-0.1-0.3l-0.1-0.4l0.1-0.2
					h0.2l0.3,0.3l0.2,0.8l0.2,0.5l0.3,0.4l0.5,0.7l0.5,0.5l0.5,0.3l0.4,0.1h0.3l0.2-0.1L250.9,15z M232.6,26.5h-0.3h-0.4v-0.1v-0.1
					l0.8-0.2l0,0l0.1,0.2L232.6,26.5z"/>
				<polygon id="Fill-19_2_" class="st31" points="247.7,29.4 247.6,29.5 247.6,29.7 247.6,30.1 247.6,30.2 247.7,30.3 247.8,30.4 
					248,30.4 248,30.2 248,30.1 248.1,29.9 248.1,29.7 248.1,29.6 248,29.4 247.9,29.4 247.8,29.3 				"/>
				<polygon id="Fill-20_2_" class="st31" points="244.7,32.3 244.4,32.4 244.1,32.4 244,32.6 244.1,32.7 244.2,32.8 244.5,32.8 
					244.7,32.7 244.7,32.5 244.9,32.4 244.8,32.3 				"/>
			</g>
		</g>
	</g>
</g>
<g id="roe">
	<g id="Flag-_x2F_-Country-_x2F_-ROE_1_">
		<g id="Mask_1_">
		</g>
		<g id="eu_1_">
			<polygon id="Path_22_" class="st32" points="160,0 208,0 208,48 160,48 			"/>
			<g id="Group_11_" transform="translate(2.518519, 2.631019)">
				<g id="d_23_" transform="translate(7.111111, 0.000000)">
					<g id="b_119_" transform="translate(1.185185, 1.185185)">
						<polygon id="a_248_" class="st29" points="173.2,3.8 172.5,6.2 173.7,6.4 						"/>
						<g id="a-link_126_" transform="translate(1.185185, 1.185185) scale(-1, 1) translate(-1.185185, -1.185185) ">
							<polygon id="a_247_" class="st29" points="-170.8,3.8 -171.6,6.2 -170.4,6.4 							"/>
						</g>
					</g>
					<g id="c_47_">
						
							<g id="b_118_" transform="translate(2.370370, 2.370370) rotate(72.000000) translate(-2.370370, -2.370370) translate(1.185185, 1.185185)">
							<polygon id="a_246_" class="st29" points="59.1,-163.2 58.4,-160.9 59.6,-160.6 							"/>
							<g id="a-link_125_" transform="translate(1.185185, 1.185185) scale(-1, 1) translate(-1.185185, -1.185185) ">
								<polygon id="a_245_" class="st29" points="-56.7,-163.2 -57.4,-160.9 -56.2,-160.6 								"/>
							</g>
						</g>
						
							<g id="b_117_" transform="translate(2.370370, 2.370370) rotate(144.000000) translate(-2.370370, -2.370370) translate(1.185185, 1.185185)">
							<polygon id="a_244_" class="st29" points="-135,-106.4 -135.7,-104 -134.6,-103.8 							"/>
							<g id="a-link_124_" transform="translate(1.185185, 1.185185) scale(-1, 1) translate(-1.185185, -1.185185) ">
								<polygon id="a_243_" class="st29" points="137.4,-106.4 136.7,-104 137.9,-103.8 								"/>
							</g>
						</g>
					</g>
					<g id="c_46_" transform="translate(2.370370, 2.370370) scale(-1, 1) translate(-2.370370, -2.370370) ">
						
							<g id="b_116_" transform="translate(2.370370, 2.370370) rotate(72.000000) translate(-2.370370, -2.370370) translate(1.185185, 1.185185)">
							<polygon id="a_242_" class="st29" points="-47.2,164 -47.9,166.3 -46.7,166.6 							"/>
							<g id="a-link_123_" transform="translate(1.185185, 1.185185) scale(-1, 1) translate(-1.185185, -1.185185) ">
								<polygon id="a_241_" class="st29" points="49.6,164 48.9,166.3 50,166.6 								"/>
							</g>
						</g>
						
							<g id="b_115_" transform="translate(2.370370, 2.370370) rotate(144.000000) translate(-2.370370, -2.370370) translate(1.185185, 1.185185)">
							<polygon id="a_240_" class="st29" points="143.3,95.9 142.6,98.3 143.8,98.5 							"/>
							<g id="a-link_122_" transform="translate(1.185185, 1.185185) scale(-1, 1) translate(-1.185185, -1.185185) ">
								<polygon id="a_239_" class="st29" points="-140.9,95.9 -141.6,98.3 -140.4,98.5 								"/>
							</g>
						</g>
					</g>
				</g>
				<g id="d_22_" transform="translate(7.111111, 14.222222)">
					<g id="b_114_" transform="translate(1.185185, 1.185185)">
						<polygon id="a_238_" class="st29" points="173.2,18 172.5,20.4 173.7,20.6 						"/>
						<g id="a-link_121_" transform="translate(1.185185, 1.185185) scale(-1, 1) translate(-1.185185, -1.185185) ">
							<polygon id="a_237_" class="st29" points="-170.8,18 -171.6,20.4 -170.4,20.6 							"/>
						</g>
					</g>
					<g id="c_45_">
						
							<g id="b_113_" transform="translate(2.370370, 2.370370) rotate(72.000000) translate(-2.370370, -2.370370) translate(1.185185, 1.185185)">
							<polygon id="a_236_" class="st29" points="72.6,-158.8 71.9,-156.5 73.1,-156.2 							"/>
							<g id="a-link_120_" transform="translate(1.185185, 1.185185) scale(-1, 1) translate(-1.185185, -1.185185) ">
								<polygon id="a_235_" class="st29" points="-70.2,-158.8 -70.9,-156.5 -69.8,-156.2 								"/>
							</g>
						</g>
						
							<g id="b_112_" transform="translate(2.370370, 2.370370) rotate(144.000000) translate(-2.370370, -2.370370) translate(1.185185, 1.185185)">
							<polygon id="a_234_" class="st29" points="-126.7,-117.9 -127.4,-115.5 -126.2,-115.3 							"/>
							<g id="a-link_119_" transform="translate(1.185185, 1.185185) scale(-1, 1) translate(-1.185185, -1.185185) ">
								<polygon id="a_233_" class="st29" points="129,-117.9 128.3,-115.5 129.5,-115.3 								"/>
							</g>
						</g>
					</g>
					<g id="c_44_" transform="translate(2.370370, 2.370370) scale(-1, 1) translate(-2.370370, -2.370370) ">
						
							<g id="b_111_" transform="translate(2.370370, 2.370370) rotate(72.000000) translate(-2.370370, -2.370370) translate(1.185185, 1.185185)">
							<polygon id="a_232_" class="st29" points="-33.7,168.4 -34.4,170.7 -33.2,171 							"/>
							<g id="a-link_118_" transform="translate(1.185185, 1.185185) scale(-1, 1) translate(-1.185185, -1.185185) ">
								<polygon id="a_231_" class="st29" points="36,168.4 35.3,170.7 36.5,171 								"/>
							</g>
						</g>
						
							<g id="b_110_" transform="translate(2.370370, 2.370370) rotate(144.000000) translate(-2.370370, -2.370370) translate(1.185185, 1.185185)">
							<polygon id="a_230_" class="st29" points="151.6,84.4 150.9,86.8 152.1,87 							"/>
							<g id="a-link_117_" transform="translate(1.185185, 1.185185) scale(-1, 1) translate(-1.185185, -1.185185) ">
								<polygon id="a_229_" class="st29" points="-149.3,84.4 -150,86.8 -148.8,87 								"/>
							</g>
						</g>
					</g>
				</g>
				<g id="e_3_">
					<g id="d_21_" transform="translate(0.000000, 7.111111)">
						<g id="b_109_" transform="translate(1.185185, 1.185185)">
							<polygon id="a_228_" class="st29" points="166.1,10.9 165.4,13.3 166.6,13.5 							"/>
							<g id="a-link_116_" transform="translate(1.185185, 1.185185) scale(-1, 1) translate(-1.185185, -1.185185) ">
								<polygon id="a_227_" class="st29" points="-163.7,10.9 -164.4,13.3 -163.3,13.5 								"/>
							</g>
						</g>
						<g id="c_43_">
							
								<g id="b_108_" transform="translate(2.370370, 2.370370) rotate(72.000000) translate(-2.370370, -2.370370) translate(1.185185, 1.185185)">
								<polygon id="a_226_" class="st29" points="63.6,-154.3 62.9,-151.9 64.1,-151.7 								"/>
								<g id="a-link_115_" transform="translate(1.185185, 1.185185) scale(-1, 1) translate(-1.185185, -1.185185) ">
									<polygon id="a_225_" class="st29" points="-61.3,-154.3 -62,-151.9 -60.8,-151.7 									"/>
								</g>
							</g>
							
								<g id="b_107_" transform="translate(2.370370, 2.370370) rotate(144.000000) translate(-2.370370, -2.370370) translate(1.185185, 1.185185)">
								<polygon id="a_224_" class="st29" points="-125.1,-107.9 -125.8,-105.6 -124.6,-105.3 								"/>
								<g id="a-link_114_" transform="translate(1.185185, 1.185185) scale(-1, 1) translate(-1.185185, -1.185185) ">
									<polygon id="a_223_" class="st29" points="127.5,-107.9 126.8,-105.6 127.9,-105.3 									"/>
								</g>
							</g>
						</g>
						<g id="c_42_" transform="translate(2.370370, 2.370370) scale(-1, 1) translate(-2.370370, -2.370370) ">
							
								<g id="b_106_" transform="translate(2.370370, 2.370370) rotate(72.000000) translate(-2.370370, -2.370370) translate(1.185185, 1.185185)">
								<polygon id="a_222_" class="st29" points="-38.2,159.4 -38.9,161.8 -37.8,162 								"/>
								<g id="a-link_113_" transform="translate(1.185185, 1.185185) scale(-1, 1) translate(-1.185185, -1.185185) ">
									<polygon id="a_221_" class="st29" points="40.6,159.4 39.9,161.8 41.1,162 									"/>
								</g>
							</g>
							
								<g id="b_105_" transform="translate(2.370370, 2.370370) rotate(144.000000) translate(-2.370370, -2.370370) translate(1.185185, 1.185185)">
								<polygon id="a_220_" class="st29" points="141.7,86 141,88.3 142.2,88.6 								"/>
								<g id="a-link_112_" transform="translate(1.185185, 1.185185) scale(-1, 1) translate(-1.185185, -1.185185) ">
									<polygon id="a_219_" class="st29" points="-139.3,86 -140.1,88.3 -138.9,88.6 									"/>
								</g>
							</g>
						</g>
					</g>
					
						<g id="d_20_" transform="translate(6.013167, 3.376780) rotate(-144.000000) translate(-6.013167, -3.376780) translate(3.642797, 1.006410)">
						<g id="b_104_" transform="translate(1.185185, 1.185185)">
							<polygon id="a_218_" class="st29" points="-138.7,93.1 -139.4,95.4 -138.2,95.7 							"/>
							<g id="a-link_111_" transform="translate(1.185185, 1.185185) scale(-1, 1) translate(-1.185185, -1.185185) ">
								<polygon id="a_217_" class="st29" points="141.1,93.1 140.4,95.4 141.5,95.7 								"/>
							</g>
						</g>
						<g id="c_41_">
							
								<g id="b_103_" transform="translate(2.370370, 2.370370) rotate(72.000000) translate(-2.370370, -2.370370) translate(1.185185, 1.185185)">
								<polygon id="a_216_" class="st29" points="47.5,161 46.8,163.3 48,163.6 								"/>
								<g id="a-link_110_" transform="translate(1.185185, 1.185185) scale(-1, 1) translate(-1.185185, -1.185185) ">
									<polygon id="a_215_" class="st29" points="-45.2,161 -45.9,163.3 -44.7,163.6 									"/>
								</g>
							</g>
							
								<g id="b_102_" transform="translate(2.370370, 2.370370) rotate(144.000000) translate(-2.370370, -2.370370) translate(1.185185, 1.185185)">
								<polygon id="a_214_" class="st29" points="169.8,4.8 169,7.2 170.2,7.4 								"/>
								<g id="a-link_109_" transform="translate(1.185185, 1.185185) scale(-1, 1) translate(-1.185185, -1.185185) ">
									<polygon id="a_213_" class="st29" points="-167.4,4.8 -168.1,7.2 -166.9,7.4 									"/>
								</g>
							</g>
						</g>
						<g id="c_40_" transform="translate(2.370370, 2.370370) scale(-1, 1) translate(-2.370370, -2.370370) ">
							
								<g id="b_101_" transform="translate(2.370370, 2.370370) rotate(72.000000) translate(-2.370370, -2.370370) translate(1.185185, 1.185185)">
								<polygon id="a_212_" class="st29" points="134,-105.1 133.3,-102.8 134.5,-102.5 								"/>
								<g id="a-link_108_" transform="translate(1.185185, 1.185185) scale(-1, 1) translate(-1.185185, -1.185185) ">
									<polygon id="a_211_" class="st29" points="-131.6,-105.1 -132.3,-102.8 -131.2,-102.5 									"/>
								</g>
							</g>
							
								<g id="b_100_" transform="translate(2.370370, 2.370370) rotate(144.000000) translate(-2.370370, -2.370370) translate(1.185185, 1.185185)">
								<polygon id="a_210_" class="st29" points="-56.6,-159.6 -57.3,-157.3 -56.1,-157 								"/>
								<g id="a-link_107_" transform="translate(1.185185, 1.185185) scale(-1, 1) translate(-1.185185, -1.185185) ">
									<polygon id="a_209_" class="st29" points="59,-159.6 58.3,-157.3 59.4,-157 									"/>
								</g>
							</g>
						</g>
					</g>
					
						<g id="d_19_" transform="translate(3.376780, 6.013167) rotate(144.000000) translate(-3.376780, -6.013167) translate(1.006410, 3.642797)">
						<g id="b_99_" transform="translate(1.185185, 1.185185)">
							<polygon id="a_208_" class="st29" points="-128,-105.7 -128.7,-103.4 -127.5,-103.1 							"/>
							<g id="a-link_106_" transform="translate(1.185185, 1.185185) scale(-1, 1) translate(-1.185185, -1.185185) ">
								<polygon id="a_207_" class="st29" points="130.3,-105.7 129.6,-103.4 130.8,-103.1 								"/>
							</g>
						</g>
						<g id="c_39_">
							
								<g id="b_98_" transform="translate(2.370370, 2.370370) rotate(72.000000) translate(-2.370370, -2.370370) translate(1.185185, 1.185185)">
								<polygon id="a_206_" class="st29" points="-138.1,89.4 -138.8,91.7 -137.6,92 								"/>
								<g id="a-link_105_" transform="translate(1.185185, 1.185185) scale(-1, 1) translate(-1.185185, -1.185185) ">
									<polygon id="a_205_" class="st29" points="140.5,89.4 139.8,91.7 141,92 									"/>
								</g>
							</g>
							
								<g id="b_97_" transform="translate(2.370370, 2.370370) rotate(144.000000) translate(-2.370370, -2.370370) translate(1.185185, 1.185185)">
								<polygon id="a_204_" class="st29" points="44.2,159.3 43.5,161.7 44.7,161.9 								"/>
								<g id="a-link_104_" transform="translate(1.185185, 1.185185) scale(-1, 1) translate(-1.185185, -1.185185) ">
									<polygon id="a_203_" class="st29" points="-41.9,159.3 -42.6,161.7 -41.4,161.9 									"/>
								</g>
							</g>
						</g>
						<g id="c_38_" transform="translate(2.370370, 2.370370) scale(-1, 1) translate(-2.370370, -2.370370) ">
							
								<g id="b_96_" transform="translate(2.370370, 2.370370) rotate(72.000000) translate(-2.370370, -2.370370) translate(1.185185, 1.185185)">
								<polygon id="a_202_" class="st29" points="-58.3,-156.3 -59,-153.9 -57.8,-153.7 								"/>
								<g id="a-link_103_" transform="translate(1.185185, 1.185185) scale(-1, 1) translate(-1.185185, -1.185185) ">
									<polygon id="a_201_" class="st29" points="60.7,-156.3 59.9,-153.9 61.1,-153.7 									"/>
								</g>
							</g>
							
								<g id="b_95_" transform="translate(2.370370, 2.370370) rotate(144.000000) translate(-2.370370, -2.370370) translate(1.185185, 1.185185)">
								<polygon id="a_200_" class="st29" points="-164.7,7.5 -165.4,9.8 -164.3,10.1 								"/>
								<g id="a-link_102_" transform="translate(1.185185, 1.185185) scale(-1, 1) translate(-1.185185, -1.185185) ">
									<polygon id="a_199_" class="st29" points="167.1,7.5 166.4,9.8 167.6,10.1 									"/>
								</g>
							</g>
						</g>
					</g>
					
						<g id="d_18_" transform="translate(3.378094, 13.141333) rotate(72.000000) translate(-3.378094, -13.141333) translate(1.007724, 10.770962)">
						<g id="b_94_" transform="translate(1.185185, 1.185185)">
							<polygon id="a_198_" class="st29" points="67.4,-154.1 66.7,-151.7 67.9,-151.5 							"/>
							<g id="a-link_101_" transform="translate(1.185185, 1.185185) scale(-1, 1) translate(-1.185185, -1.185185) ">
								<polygon id="a_197_" class="st29" points="-65.1,-154.1 -65.8,-151.7 -64.6,-151.5 								"/>
							</g>
						</g>
						<g id="c_37_">
							
								<g id="b_93_" transform="translate(2.370370, 2.370370) rotate(72.000000) translate(-2.370370, -2.370370) translate(1.185185, 1.185185)">
								<polygon id="a_196_" class="st29" points="-123.8,-111.5 -124.5,-109.1 -123.3,-108.9 								"/>
								<g id="a-link_100_" transform="translate(1.185185, 1.185185) scale(-1, 1) translate(-1.185185, -1.185185) ">
									<polygon id="a_195_" class="st29" points="126.1,-111.5 125.4,-109.1 126.6,-108.9 									"/>
								</g>
							</g>
							
								<g id="b_92_" transform="translate(2.370370, 2.370370) rotate(144.000000) translate(-2.370370, -2.370370) translate(1.185185, 1.185185)">
								<polygon id="a_194_" class="st29" points="-142.3,83.6 -143,86 -141.8,86.2 								"/>
								<g id="a-link_99_" transform="translate(1.185185, 1.185185) scale(-1, 1) translate(-1.185185, -1.185185) ">
									<polygon id="a_193_" class="st29" points="144.7,83.6 144,86 145.1,86.2 									"/>
								</g>
							</g>
						</g>
						<g id="c_36_" transform="translate(2.370370, 2.370370) scale(-1, 1) translate(-2.370370, -2.370370) ">
							
								<g id="b_91_" transform="translate(2.370370, 2.370370) rotate(72.000000) translate(-2.370370, -2.370370) translate(1.185185, 1.185185)">
								<polygon id="a_192_" class="st29" points="-164.7,14.6 -165.4,17 -164.3,17.2 								"/>
								<g id="a-link_98_" transform="translate(1.185185, 1.185185) scale(-1, 1) translate(-1.185185, -1.185185) ">
									<polygon id="a_191_" class="st29" points="167.1,14.6 166.4,17 167.6,17.2 									"/>
								</g>
							</g>
							
								<g id="b_90_" transform="translate(2.370370, 2.370370) rotate(144.000000) translate(-2.370370, -2.370370) translate(1.185185, 1.185185)">
								<polygon id="a_190_" class="st29" points="-35.1,161.5 -35.8,163.9 -34.6,164.1 								"/>
								<g id="a-link_97_" transform="translate(1.185185, 1.185185) scale(-1, 1) translate(-1.185185, -1.185185) ">
									<polygon id="a_189_" class="st29" points="37.4,161.5 36.7,163.9 37.9,164.1 									"/>
								</g>
							</g>
						</g>
					</g>
					
						<g id="d_17_" transform="translate(5.950356, 15.526843) rotate(72.000000) translate(-5.950356, -15.526843) translate(3.579986, 13.156473)">
						<g id="b_89_" transform="translate(1.185185, 1.185185)">
							<polygon id="a_188_" class="st29" points="70.5,-155.8 69.8,-153.4 71,-153.2 							"/>
							<g id="a-link_96_" transform="translate(1.185185, 1.185185) scale(-1, 1) translate(-1.185185, -1.185185) ">
								<polygon id="a_187_" class="st29" points="-68.1,-155.8 -68.8,-153.4 -67.7,-153.2 								"/>
							</g>
						</g>
						<g id="c_35_">
							
								<g id="b_88_" transform="translate(2.370370, 2.370370) rotate(72.000000) translate(-2.370370, -2.370370) translate(1.185185, 1.185185)">
								<polygon id="a_186_" class="st29" points="-124.4,-114.9 -125.1,-112.6 -124,-112.3 								"/>
								<g id="a-link_95_" transform="translate(1.185185, 1.185185) scale(-1, 1) translate(-1.185185, -1.185185) ">
									<polygon id="a_185_" class="st29" points="126.8,-114.9 126.1,-112.6 127.3,-112.3 									"/>
								</g>
							</g>
							
								<g id="b_87_" transform="translate(2.370370, 2.370370) rotate(144.000000) translate(-2.370370, -2.370370) translate(1.185185, 1.185185)">
								<polygon id="a_184_" class="st29" points="-145.8,83.2 -146.5,85.6 -145.3,85.8 								"/>
								<g id="a-link_94_" transform="translate(1.185185, 1.185185) scale(-1, 1) translate(-1.185185, -1.185185) ">
									<polygon id="a_183_" class="st29" points="148.2,83.2 147.4,85.6 148.6,85.8 									"/>
								</g>
							</g>
						</g>
						<g id="c_34_" transform="translate(2.370370, 2.370370) scale(-1, 1) translate(-2.370370, -2.370370) ">
							
								<g id="b_86_" transform="translate(2.370370, 2.370370) rotate(72.000000) translate(-2.370370, -2.370370) translate(1.185185, 1.185185)">
								<polygon id="a_182_" class="st29" points="-167.3,17 -168,19.3 -166.8,19.6 								"/>
								<g id="a-link_93_" transform="translate(1.185185, 1.185185) scale(-1, 1) translate(-1.185185, -1.185185) ">
									<polygon id="a_181_" class="st29" points="169.7,17 169,19.3 170.2,19.6 									"/>
								</g>
							</g>
							
								<g id="b_85_" transform="translate(2.370370, 2.370370) rotate(144.000000) translate(-2.370370, -2.370370) translate(1.185185, 1.185185)">
								<polygon id="a_180_" class="st29" points="-33.6,164.7 -34.3,167.1 -33.1,167.3 								"/>
								<g id="a-link_92_" transform="translate(1.185185, 1.185185) scale(-1, 1) translate(-1.185185, -1.185185) ">
									<polygon id="a_179_" class="st29" points="36,164.7 35.3,167.1 36.4,167.3 									"/>
								</g>
							</g>
						</g>
					</g>
				</g>
				
					<g id="e_2_" transform="translate(14.222222, 9.481481) scale(-1, 1) translate(-14.222222, -9.481481) translate(9.481481, 0.000000)">
					<g id="d_16_" transform="translate(0.000000, 7.111111)">
						<g id="b_84_" transform="translate(1.185185, 1.185185)">
							<polygon id="a_178_" class="st29" points="-178,10.9 -178.7,13.3 -177.5,13.5 							"/>
							<g id="a-link_91_" transform="translate(1.185185, 1.185185) scale(-1, 1) translate(-1.185185, -1.185185) ">
								<polygon id="a_177_" class="st29" points="180.3,10.9 179.6,13.3 180.8,13.5 								"/>
							</g>
						</g>
						<g id="c_33_">
							
								<g id="b_83_" transform="translate(2.370370, 2.370370) rotate(72.000000) translate(-2.370370, -2.370370) translate(1.185185, 1.185185)">
								<polygon id="a_176_" class="st29" points="-42.6,172.9 -43.3,175.3 -42.2,175.5 								"/>
								<g id="a-link_90_" transform="translate(1.185185, 1.185185) scale(-1, 1) translate(-1.185185, -1.185185) ">
									<polygon id="a_175_" class="st29" points="45,172.9 44.3,175.3 45.5,175.5 									"/>
								</g>
							</g>
							
								<g id="b_82_" transform="translate(2.370370, 2.370370) rotate(144.000000) translate(-2.370370, -2.370370) translate(1.185185, 1.185185)">
								<polygon id="a_174_" class="st29" points="153.2,94.3 152.5,96.7 153.7,96.9 								"/>
								<g id="a-link_89_" transform="translate(1.185185, 1.185185) scale(-1, 1) translate(-1.185185, -1.185185) ">
									<polygon id="a_173_" class="st29" points="-150.8,94.3 -151.6,96.7 -150.4,96.9 									"/>
								</g>
							</g>
						</g>
						<g id="c_32_" transform="translate(2.370370, 2.370370) scale(-1, 1) translate(-2.370370, -2.370370) ">
							
								<g id="b_81_" transform="translate(2.370370, 2.370370) rotate(72.000000) translate(-2.370370, -2.370370) translate(1.185185, 1.185185)">
								<polygon id="a_172_" class="st29" points="68,-167.8 67.3,-165.4 68.5,-165.2 								"/>
								<g id="a-link_88_" transform="translate(1.185185, 1.185185) scale(-1, 1) translate(-1.185185, -1.185185) ">
									<polygon id="a_171_" class="st29" points="-65.7,-167.8 -66.4,-165.4 -65.2,-165.2 									"/>
								</g>
							</g>
							
								<g id="b_80_" transform="translate(2.370370, 2.370370) rotate(144.000000) translate(-2.370370, -2.370370) translate(1.185185, 1.185185)">
								<polygon id="a_170_" class="st29" points="-136.6,-116.3 -137.3,-113.9 -136.1,-113.7 								"/>
								<g id="a-link_87_" transform="translate(1.185185, 1.185185) scale(-1, 1) translate(-1.185185, -1.185185) ">
									<polygon id="a_169_" class="st29" points="139,-116.3 138.3,-113.9 139.5,-113.7 									"/>
								</g>
							</g>
						</g>
					</g>
					
						<g id="d_15_" transform="translate(6.013167, 3.376780) rotate(-144.000000) translate(-6.013167, -3.376780) translate(3.642797, 1.006410)">
						<g id="b_79_" transform="translate(1.185185, 1.185185)">
							<polygon id="a_168_" class="st29" points="139.6,-109.2 138.9,-106.8 140.1,-106.6 							"/>
							<g id="a-link_86_" transform="translate(1.185185, 1.185185) scale(-1, 1) translate(-1.185185, -1.185185) ">
								<polygon id="a_167_" class="st29" points="-137.3,-109.2 -138,-106.8 -136.8,-106.6 								"/>
							</g>
						</g>
						<g id="c_31_">
							
								<g id="b_78_" transform="translate(2.370370, 2.370370) rotate(72.000000) translate(-2.370370, -2.370370) translate(1.185185, 1.185185)">
								<polygon id="a_166_" class="st29" points="-58.7,-166.2 -59.4,-163.9 -58.3,-163.6 								"/>
								<g id="a-link_85_" transform="translate(1.185185, 1.185185) scale(-1, 1) translate(-1.185185, -1.185185) ">
									<polygon id="a_165_" class="st29" points="61.1,-166.2 60.4,-163.9 61.6,-163.6 									"/>
								</g>
							</g>
							
								<g id="b_77_" transform="translate(2.370370, 2.370370) rotate(144.000000) translate(-2.370370, -2.370370) translate(1.185185, 1.185185)">
								<polygon id="a_164_" class="st29" points="-174.3,4.8 -175,7.2 -173.8,7.4 								"/>
								<g id="a-link_84_" transform="translate(1.185185, 1.185185) scale(-1, 1) translate(-1.185185, -1.185185) ">
									<polygon id="a_163_" class="st29" points="176.7,4.8 176,7.2 177.2,7.4 									"/>
								</g>
							</g>
						</g>
						<g id="c_30_" transform="translate(2.370370, 2.370370) scale(-1, 1) translate(-2.370370, -2.370370) ">
							
								<g id="b_76_" transform="translate(2.370370, 2.370370) rotate(72.000000) translate(-2.370370, -2.370370) translate(1.185185, 1.185185)">
								<polygon id="a_162_" class="st29" points="-144.3,97.1 -145,99.5 -143.8,99.7 								"/>
								<g id="a-link_83_" transform="translate(1.185185, 1.185185) scale(-1, 1) translate(-1.185185, -1.185185) ">
									<polygon id="a_161_" class="st29" points="146.7,97.1 146,99.5 147.1,99.7 									"/>
								</g>
							</g>
							
								<g id="b_75_" transform="translate(2.370370, 2.370370) rotate(144.000000) translate(-2.370370, -2.370370) translate(1.185185, 1.185185)">
								<polygon id="a_160_" class="st29" points="49.7,167.6 49,169.9 50.2,170.2 								"/>
								<g id="a-link_82_" transform="translate(1.185185, 1.185185) scale(-1, 1) translate(-1.185185, -1.185185) ">
									<polygon id="a_159_" class="st29" points="-47.3,167.6 -48,169.9 -46.8,170.2 									"/>
								</g>
							</g>
						</g>
					</g>
					
						<g id="d_14_" transform="translate(3.376780, 6.013167) rotate(144.000000) translate(-3.376780, -6.013167) translate(1.006410, 3.642797)">
						<g id="b_74_" transform="translate(1.185185, 1.185185)">
							<polygon id="a_158_" class="st29" points="150.4,96.5 149.7,98.9 150.8,99.2 							"/>
							<g id="a-link_81_" transform="translate(1.185185, 1.185185) scale(-1, 1) translate(-1.185185, -1.185185) ">
								<polygon id="a_157_" class="st29" points="-148,96.5 -148.7,98.9 -147.5,99.2 								"/>
							</g>
						</g>
						<g id="c_29_">
							
								<g id="b_73_" transform="translate(2.370370, 2.370370) rotate(72.000000) translate(-2.370370, -2.370370) translate(1.185185, 1.185185)">
								<polygon id="a_156_" class="st29" points="140.2,-112.9 139.5,-110.5 140.7,-110.3 								"/>
								<g id="a-link_80_" transform="translate(1.185185, 1.185185) scale(-1, 1) translate(-1.185185, -1.185185) ">
									<polygon id="a_155_" class="st29" points="-137.8,-112.9 -138.5,-110.5 -137.4,-110.3 									"/>
								</g>
							</g>
							
								<g id="b_72_" transform="translate(2.370370, 2.370370) rotate(144.000000) translate(-2.370370, -2.370370) translate(1.185185, 1.185185)">
								<polygon id="a_154_" class="st29" points="-62.1,-167.9 -62.8,-165.6 -61.6,-165.3 								"/>
								<g id="a-link_79_" transform="translate(1.185185, 1.185185) scale(-1, 1) translate(-1.185185, -1.185185) ">
									<polygon id="a_153_" class="st29" points="64.4,-167.9 63.7,-165.6 64.9,-165.3 									"/>
								</g>
							</g>
						</g>
						<g id="c_28_" transform="translate(2.370370, 2.370370) scale(-1, 1) translate(-2.370370, -2.370370) ">
							
								<g id="b_71_" transform="translate(2.370370, 2.370370) rotate(72.000000) translate(-2.370370, -2.370370) translate(1.185185, 1.185185)">
								<polygon id="a_152_" class="st29" points="48,170.9 47.3,173.3 48.5,173.5 								"/>
								<g id="a-link_78_" transform="translate(1.185185, 1.185185) scale(-1, 1) translate(-1.185185, -1.185185) ">
									<polygon id="a_151_" class="st29" points="-45.6,170.9 -46.3,173.3 -45.1,173.5 									"/>
								</g>
							</g>
							
								<g id="b_70_" transform="translate(2.370370, 2.370370) rotate(144.000000) translate(-2.370370, -2.370370) translate(1.185185, 1.185185)">
								<polygon id="a_150_" class="st29" points="179.3,7.5 178.6,9.8 179.8,10.1 								"/>
								<g id="a-link_77_" transform="translate(1.185185, 1.185185) scale(-1, 1) translate(-1.185185, -1.185185) ">
									<polygon id="a_149_" class="st29" points="-176.9,7.5 -177.7,9.8 -176.5,10.1 									"/>
								</g>
							</g>
						</g>
					</g>
					
						<g id="d_13_" transform="translate(3.378094, 13.141333) rotate(72.000000) translate(-3.378094, -13.141333) translate(1.007724, 10.770962)">
						<g id="b_69_" transform="translate(1.185185, 1.185185)">
							<polygon id="a_148_" class="st29" points="-38.8,173.1 -39.5,175.5 -38.4,175.7 							"/>
							<g id="a-link_76_" transform="translate(1.185185, 1.185185) scale(-1, 1) translate(-1.185185, -1.185185) ">
								<polygon id="a_147_" class="st29" points="41.2,173.1 40.5,175.5 41.7,175.7 								"/>
							</g>
						</g>
						<g id="c_27_">
							
								<g id="b_68_" transform="translate(2.370370, 2.370370) rotate(72.000000) translate(-2.370370, -2.370370) translate(1.185185, 1.185185)">
								<polygon id="a_146_" class="st29" points="154.5,90.8 153.8,93.1 155,93.4 								"/>
								<g id="a-link_75_" transform="translate(1.185185, 1.185185) scale(-1, 1) translate(-1.185185, -1.185185) ">
									<polygon id="a_145_" class="st29" points="-152.2,90.8 -152.9,93.1 -151.7,93.4 									"/>
								</g>
							</g>
							
								<g id="b_67_" transform="translate(2.370370, 2.370370) rotate(144.000000) translate(-2.370370, -2.370370) translate(1.185185, 1.185185)">
								<polygon id="a_144_" class="st29" points="136,-118.7 135.3,-116.3 136.5,-116.1 								"/>
								<g id="a-link_74_" transform="translate(1.185185, 1.185185) scale(-1, 1) translate(-1.185185, -1.185185) ">
									<polygon id="a_143_" class="st29" points="-133.6,-118.7 -134.3,-116.3 -133.2,-116.1 									"/>
								</g>
							</g>
						</g>
						<g id="c_26_" transform="translate(2.370370, 2.370370) scale(-1, 1) translate(-2.370370, -2.370370) ">
							
								<g id="b_66_" transform="translate(2.370370, 2.370370) rotate(72.000000) translate(-2.370370, -2.370370) translate(1.185185, 1.185185)">
								<polygon id="a_142_" class="st29" points="179.3,14.6 178.6,17 179.8,17.2 								"/>
								<g id="a-link_73_" transform="translate(1.185185, 1.185185) scale(-1, 1) translate(-1.185185, -1.185185) ">
									<polygon id="a_141_" class="st29" points="-177,14.6 -177.7,17 -176.5,17.2 									"/>
								</g>
							</g>
							
								<g id="b_65_" transform="translate(2.370370, 2.370370) rotate(144.000000) translate(-2.370370, -2.370370) translate(1.185185, 1.185185)">
								<polygon id="a_140_" class="st29" points="71.2,-165.7 70.5,-163.4 71.7,-163.1 								"/>
								<g id="a-link_72_" transform="translate(1.185185, 1.185185) scale(-1, 1) translate(-1.185185, -1.185185) ">
									<polygon id="a_139_" class="st29" points="-68.8,-165.7 -69.6,-163.4 -68.4,-163.1 									"/>
								</g>
							</g>
						</g>
					</g>
					
						<g id="d_12_" transform="translate(5.950356, 15.526843) rotate(72.000000) translate(-5.950356, -15.526843) translate(3.579986, 13.156473)">
						<g id="b_64_" transform="translate(1.185185, 1.185185)">
							<polygon id="a_138_" class="st29" points="-35.8,171.4 -36.5,173.8 -35.3,174 							"/>
							<g id="a-link_71_" transform="translate(1.185185, 1.185185) scale(-1, 1) translate(-1.185185, -1.185185) ">
								<polygon id="a_137_" class="st29" points="38.1,171.4 37.4,173.8 38.6,174 								"/>
							</g>
						</g>
						<g id="c_25_">
							
								<g id="b_63_" transform="translate(2.370370, 2.370370) rotate(72.000000) translate(-2.370370, -2.370370) translate(1.185185, 1.185185)">
								<polygon id="a_136_" class="st29" points="153.9,87.3 153.2,89.7 154.3,89.9 								"/>
								<g id="a-link_70_" transform="translate(1.185185, 1.185185) scale(-1, 1) translate(-1.185185, -1.185185) ">
									<polygon id="a_135_" class="st29" points="-151.5,87.3 -152.2,89.7 -151,89.9 									"/>
								</g>
							</g>
							
								<g id="b_62_" transform="translate(2.370370, 2.370370) rotate(144.000000) translate(-2.370370, -2.370370) translate(1.185185, 1.185185)">
								<polygon id="a_134_" class="st29" points="132.5,-119.1 131.8,-116.7 133,-116.5 								"/>
								<g id="a-link_69_" transform="translate(1.185185, 1.185185) scale(-1, 1) translate(-1.185185, -1.185185) ">
									<polygon id="a_133_" class="st29" points="-130.2,-119.1 -130.9,-116.7 -129.7,-116.5 									"/>
								</g>
							</g>
						</g>
						<g id="c_24_" transform="translate(2.370370, 2.370370) scale(-1, 1) translate(-2.370370, -2.370370) ">
							
								<g id="b_61_" transform="translate(2.370370, 2.370370) rotate(72.000000) translate(-2.370370, -2.370370) translate(1.185185, 1.185185)">
								<polygon id="a_132_" class="st29" points="176.8,17 176,19.3 177.2,19.6 								"/>
								<g id="a-link_68_" transform="translate(1.185185, 1.185185) scale(-1, 1) translate(-1.185185, -1.185185) ">
									<polygon id="a_131_" class="st29" points="-174.4,17 -175.1,19.3 -173.9,19.6 									"/>
								</g>
							</g>
							
								<g id="b_60_" transform="translate(2.370370, 2.370370) rotate(144.000000) translate(-2.370370, -2.370370) translate(1.185185, 1.185185)">
								<polygon id="a_130_" class="st29" points="72.7,-162.5 72,-160.2 73.2,-159.9 								"/>
								<g id="a-link_67_" transform="translate(1.185185, 1.185185) scale(-1, 1) translate(-1.185185, -1.185185) ">
									<polygon id="a_129_" class="st29" points="-70.3,-162.5 -71,-160.2 -69.8,-159.9 									"/>
								</g>
							</g>
						</g>
					</g>
				</g>
			</g>
		</g>
	</g>
</g>
<g id="th_1_">
	<g id="Flag-_x2F_-Country-_x2F_-Thailand">
		<g id="Mask_10_">
		</g>
		<g id="th">
			<polygon id="Path_88_" class="st33" points="108,0 156,0 156,48 108,48 			"/>
			<polygon id="Path_87_" class="st34" points="108,16.3 156,16.3 156,32.3 108,32.3 			"/>
			<path id="Shape_30_" class="st35" d="M108,0h48v8.3h-48V0z M108,40h48v8h-48V40z"/>
		</g>
	</g>
</g>
<g id="en">
	<g id="Flag-_x2F_-Country-_x2F_-UK_1_">
		<g id="Mask_3_">
		</g>
		<g id="gb_1_">
			<g id="Path_23_">
			</g>
			<g id="Group_12_">
				<g transform="translate(-24.288000, 0.000000)">
					<polygon class="st36" points="128.3,0 128.3,48 127.8,47.7 80.3,47.7 80.3,0 					"/>
					<path id="Shape_8_" class="st37" d="M80.3,18.7v0.6l0.6-0.3L80.3,18.7z M108.2,32.6l-6.5-3.2l-9.8-4.9l-2.8,1.4l-3.3,1.6
						L82,29.4L80.8,30l4.9,2.5l0.4,0.2l2.8,1.4l27.7,13.7h11l0.6,0.3v-5.5L108.2,32.6z M80.3,29.6v0.6l0.6-0.3L80.3,29.6z M119.1,0
						l-30,14.9l-2.8,1.4l-0.5,0.2L80.9,19l1.2,0.6l3.8,1.9l3.3,1.6l2.8,1.4l9.8-4.9l6.6-3.3l20-10V0H119.1z"/>
					<path id="Shape_7_" class="st37" d="M80.3,16.3v16.3h48V16.3H80.3z M80.3,0v47.7h8.8V0H80.3z"/>
					<path id="Shape_6_" class="st38" d="M80.3,19.5v9.8h48v-9.8H80.3z M80.3,0v47.7h5.5V0H80.3z M122.7,0L89.9,16.3h7.3l31-15.4V0
						H122.7z M104.6,32.6h-7.3l31,15.4v-3.6L104.6,32.6z"/>
				</g>
			</g>
		</g>
	</g>
	<polygon class="st26" points="104,48 103.5,47.7 104,47.7 	"/>
</g>
<g id="vn_1_">
	<g id="Flag-_x2F_-Country-_x2F_-Vietnam">
		<g id="Mask_12_">
		</g>
		<g id="vn">
			<g id="Path_91_">
			</g>
			<g id="Group_15_">
				<g id="Path_90_" transform="translate(-0.324401, 0.000000)">
					<polygon class="st39" points="4.3,0 52.3,0 52.3,48 4.3,48 					"/>
					<polygon class="st40" points="33.6,33.5 27.5,28.9 21.5,33.5 23.7,26.1 17.7,21.5 25.2,21.4 27.5,14 29.8,21.4 37.3,21.4 
						31.3,26 					"/>
				</g>
			</g>
		</g>
	</g>
</g>
</svg>
